<?xml version="1.0" encoding="utf-8" standalone="no"?>
<!DOCTYPE svg PUBLIC "-//W3C//DTD SVG 1.1//EN"
  "http://www.w3.org/Graphics/SVG/1.1/DTD/svg11.dtd">
<svg xmlns:xlink="http://www.w3.org/1999/xlink" width="460.8pt" height="345.6pt" viewBox="0 0 460.8 345.6" xmlns="http://www.w3.org/2000/svg" version="1.1">
 <metadata>
  <rdf:RDF xmlns:dc="http://purl.org/dc/elements/1.1/" xmlns:cc="http://creativecommons.org/ns#" xmlns:rdf="http://www.w3.org/1999/02/22-rdf-syntax-ns#">
   <cc:Work>
    <dc:type rdf:resource="http://purl.org/dc/dcmitype/StillImage"/>
    <dc:date>2023-04-03T16:41:12.511780</dc:date>
    <dc:format>image/svg+xml</dc:format>
    <dc:creator>
     <cc:Agent>
      <dc:title>Matplotlib v3.5.1, https://matplotlib.org/</dc:title>
     </cc:Agent>
    </dc:creator>
   </cc:Work>
  </rdf:RDF>
 </metadata>
 <defs>
  <style type="text/css">*{stroke-linejoin: round; stroke-linecap: butt}</style>
 </defs>
 <g id="figure_1">
  <g id="patch_1">
   <path d="M 0 345.6 
L 460.8 345.6 
L 460.8 0 
L 0 0 
z
" style="fill: #ffffff"/>
  </g>
  <g id="axes_1">
   <g id="LineCollection_1">
    <path d="M 315.881092 180.788287 
L 216.290274 199.900525 
" clip-path="url(#p7089df4fd0)" style="fill: none; stroke: #00ffff"/>
    <path d="M 315.881092 180.788287 
L 347.24295 214.794681 
" clip-path="url(#p7089df4fd0)" style="fill: none; stroke: #00ffff"/>
    <path d="M 216.290274 199.900525 
L 281.500782 195.75405 
" clip-path="url(#p7089df4fd0)" style="fill: none; stroke: #00ffff"/>
    <path d="M 216.290274 199.900525 
L 145.58096 180.788287 
" clip-path="url(#p7089df4fd0)" style="fill: none; stroke: #00ffff"/>
    <path d="M 347.24295 214.794681 
L 378.602461 234.692492 
" clip-path="url(#p7089df4fd0)" style="fill: none; stroke: #00ffff"/>
    <path d="M 347.24295 214.794681 
L 338.501378 268.040929 
" clip-path="url(#p7089df4fd0)" style="fill: none; stroke: #00ffff"/>
    <path d="M 347.24295 214.794681 
L 338.501378 161.546006 
" clip-path="url(#p7089df4fd0)" style="fill: none; stroke: #00ffff"/>
    <path d="M 347.24295 214.794681 
L 315.883513 256.253354 
" clip-path="url(#p7089df4fd0)" style="fill: none; stroke: #00ffff"/>
    <path d="M 347.24295 214.794681 
L 378.605254 173.5221 
" clip-path="url(#p7089df4fd0)" style="fill: none; stroke: #00ffff"/>
    <path d="M 281.500782 195.75405 
L 286.823947 221.408034 
" clip-path="url(#p7089df4fd0)" style="fill: none; stroke: #00ffff"/>
    <path d="M 122.96626 246.740305 
L 114.225262 204.304162 
" clip-path="url(#p7089df4fd0)" style="fill: none; stroke: #00ffff"/>
    <path d="M 122.96626 246.740305 
L 109.295616 299.637173 
" clip-path="url(#p7089df4fd0)" style="fill: none; stroke: #00ffff"/>
    <path d="M 114.225262 204.304162 
L 122.963291 161.546006 
" clip-path="url(#p7089df4fd0)" style="fill: none; stroke: #00ffff"/>
    <path d="M 114.225262 204.304162 
L 145.58096 180.788287 
" clip-path="url(#p7089df4fd0)" style="fill: none; stroke: #00ffff"/>
    <path d="M 114.225262 204.304162 
L 82.865177 173.520051 
" clip-path="url(#p7089df4fd0)" style="fill: none; stroke: #00ffff"/>
    <path d="M 114.225262 204.304162 
L 82.86797 234.690443 
" clip-path="url(#p7089df4fd0)" style="fill: none; stroke: #00ffff"/>
    <path d="M 378.602461 234.692492 
L 411.887603 232.538865 
" clip-path="url(#p7089df4fd0)" style="fill: none; stroke: #00ffff"/>
    <path d="M 172.832901 71.603891 
L 111.756931 103.673286 
" clip-path="url(#p7089df4fd0)" style="fill: none; stroke: #00ffff"/>
    <path d="M 172.832901 71.603891 
L 163.93315 38.915702 
" clip-path="url(#p7089df4fd0)" style="fill: none; stroke: #00ffff"/>
    <path d="M 111.756931 103.673286 
L 122.963291 161.546006 
" clip-path="url(#p7089df4fd0)" style="fill: none; stroke: #00ffff"/>
    <path d="M 338.501378 268.040929 
L 380.528129 306.684298 
" clip-path="url(#p7089df4fd0)" style="fill: none; stroke: #00ffff"/>
    <path d="M 338.501378 161.546006 
L 348.781588 103.794241 
" clip-path="url(#p7089df4fd0)" style="fill: none; stroke: #00ffff"/>
    <path d="M 348.781588 103.794241 
L 288.419033 71.603891 
" clip-path="url(#p7089df4fd0)" style="fill: none; stroke: #00ffff"/>
    <path d="M 288.419033 71.603891 
L 297.142611 38.922503 
" clip-path="url(#p7089df4fd0)" style="fill: none; stroke: #00ffff"/>
    <path d="M 315.883513 256.253354 
L 254.864542 296.14893 
" clip-path="url(#p7089df4fd0)" style="fill: none; stroke: #00ffff"/>
    <path d="M 378.605254 173.5221 
L 411.887461 177.154747 
" clip-path="url(#p7089df4fd0)" style="fill: none; stroke: #00ffff"/>
    <path d="M 82.865177 173.520051 
L 48.912397 177.152563 
" clip-path="url(#p7089df4fd0)" style="fill: none; stroke: #00ffff"/>
    <path d="M 82.86797 234.690443 
L 48.912684 232.539227 
" clip-path="url(#p7089df4fd0)" style="fill: none; stroke: #00ffff"/>
   </g>
   <g id="PathCollection_1">
    <defs>
     <path id="ma1370bfe59" d="M 0 3.162278 
C 0.838646 3.162278 1.643056 2.82908 2.236068 2.236068 
C 2.82908 1.643056 3.162278 0.838646 3.162278 0 
C 3.162278 -0.838646 2.82908 -1.643056 2.236068 -2.236068 
C 1.643056 -2.82908 0.838646 -3.162278 0 -3.162278 
C -0.838646 -3.162278 -1.643056 -2.82908 -2.236068 -2.236068 
C -2.82908 -1.643056 -3.162278 -0.838646 -3.162278 0 
C -3.162278 0.838646 -2.82908 1.643056 -2.236068 2.236068 
C -1.643056 2.82908 -0.838646 3.162278 0 3.162278 
z
" style="stroke: #0000ff"/>
    </defs>
    <g clip-path="url(#p7089df4fd0)">
     <use xlink:href="#ma1370bfe59" x="315.881092" y="180.788287" style="fill: #0000ff; stroke: #0000ff"/>
     <use xlink:href="#ma1370bfe59" x="216.290274" y="199.900525" style="fill: #0000ff; stroke: #0000ff"/>
     <use xlink:href="#ma1370bfe59" x="347.24295" y="214.794681" style="fill: #0000ff; stroke: #0000ff"/>
     <use xlink:href="#ma1370bfe59" x="281.500782" y="195.75405" style="fill: #0000ff; stroke: #0000ff"/>
     <use xlink:href="#ma1370bfe59" x="286.823947" y="221.408034" style="fill: #0000ff; stroke: #0000ff"/>
     <use xlink:href="#ma1370bfe59" x="122.96626" y="246.740305" style="fill: #0000ff; stroke: #0000ff"/>
     <use xlink:href="#ma1370bfe59" x="114.225262" y="204.304162" style="fill: #0000ff; stroke: #0000ff"/>
     <use xlink:href="#ma1370bfe59" x="109.295616" y="299.637173" style="fill: #0000ff; stroke: #0000ff"/>
     <use xlink:href="#ma1370bfe59" x="378.602461" y="234.692492" style="fill: #0000ff; stroke: #0000ff"/>
     <use xlink:href="#ma1370bfe59" x="411.887603" y="232.538865" style="fill: #0000ff; stroke: #0000ff"/>
     <use xlink:href="#ma1370bfe59" x="172.832901" y="71.603891" style="fill: #0000ff; stroke: #0000ff"/>
     <use xlink:href="#ma1370bfe59" x="111.756931" y="103.673286" style="fill: #0000ff; stroke: #0000ff"/>
     <use xlink:href="#ma1370bfe59" x="163.93315" y="38.915702" style="fill: #0000ff; stroke: #0000ff"/>
     <use xlink:href="#ma1370bfe59" x="338.501378" y="268.040929" style="fill: #0000ff; stroke: #0000ff"/>
     <use xlink:href="#ma1370bfe59" x="380.528129" y="306.684298" style="fill: #0000ff; stroke: #0000ff"/>
     <use xlink:href="#ma1370bfe59" x="122.963291" y="161.546006" style="fill: #0000ff; stroke: #0000ff"/>
     <use xlink:href="#ma1370bfe59" x="145.58096" y="180.788287" style="fill: #0000ff; stroke: #0000ff"/>
     <use xlink:href="#ma1370bfe59" x="338.501378" y="161.546006" style="fill: #0000ff; stroke: #0000ff"/>
     <use xlink:href="#ma1370bfe59" x="348.781588" y="103.794241" style="fill: #0000ff; stroke: #0000ff"/>
     <use xlink:href="#ma1370bfe59" x="288.419033" y="71.603891" style="fill: #0000ff; stroke: #0000ff"/>
     <use xlink:href="#ma1370bfe59" x="297.142611" y="38.922503" style="fill: #0000ff; stroke: #0000ff"/>
     <use xlink:href="#ma1370bfe59" x="315.883513" y="256.253354" style="fill: #0000ff; stroke: #0000ff"/>
     <use xlink:href="#ma1370bfe59" x="254.864542" y="296.14893" style="fill: #0000ff; stroke: #0000ff"/>
     <use xlink:href="#ma1370bfe59" x="378.605254" y="173.5221" style="fill: #0000ff; stroke: #0000ff"/>
     <use xlink:href="#ma1370bfe59" x="411.887461" y="177.154747" style="fill: #0000ff; stroke: #0000ff"/>
     <use xlink:href="#ma1370bfe59" x="82.865177" y="173.520051" style="fill: #0000ff; stroke: #0000ff"/>
     <use xlink:href="#ma1370bfe59" x="48.912397" y="177.152563" style="fill: #0000ff; stroke: #0000ff"/>
     <use xlink:href="#ma1370bfe59" x="82.86797" y="234.690443" style="fill: #0000ff; stroke: #0000ff"/>
     <use xlink:href="#ma1370bfe59" x="48.912684" y="232.539227" style="fill: #0000ff; stroke: #0000ff"/>
     <use xlink:href="#ma1370bfe59" x="48.912545" y="194.898541" style="fill: #0000ff; stroke: #0000ff"/>
     <use xlink:href="#ma1370bfe59" x="411.887603" y="194.898541" style="fill: #0000ff; stroke: #0000ff"/>
    </g>
   </g>
   <g id="text_1">
    <!-- UnitDoor -->
    <g transform="translate(318.313987 185.887244)rotate(-45)scale(0.1 -0.1)">
     <defs>
      <path id="ArialMT-55" d="M 3500 4581 
L 4106 4581 
L 4106 1934 
Q 4106 1244 3950 837 
Q 3794 431 3386 176 
Q 2978 -78 2316 -78 
Q 1672 -78 1262 144 
Q 853 366 678 786 
Q 503 1206 503 1934 
L 503 4581 
L 1109 4581 
L 1109 1938 
Q 1109 1341 1220 1058 
Q 1331 775 1601 622 
Q 1872 469 2263 469 
Q 2931 469 3215 772 
Q 3500 1075 3500 1938 
L 3500 4581 
z
" transform="scale(0.015625)"/>
      <path id="ArialMT-6e" d="M 422 0 
L 422 3319 
L 928 3319 
L 928 2847 
Q 1294 3394 1984 3394 
Q 2284 3394 2536 3286 
Q 2788 3178 2913 3003 
Q 3038 2828 3088 2588 
Q 3119 2431 3119 2041 
L 3119 0 
L 2556 0 
L 2556 2019 
Q 2556 2363 2490 2533 
Q 2425 2703 2258 2804 
Q 2091 2906 1866 2906 
Q 1506 2906 1245 2678 
Q 984 2450 984 1813 
L 984 0 
L 422 0 
z
" transform="scale(0.015625)"/>
      <path id="ArialMT-69" d="M 425 3934 
L 425 4581 
L 988 4581 
L 988 3934 
L 425 3934 
z
M 425 0 
L 425 3319 
L 988 3319 
L 988 0 
L 425 0 
z
" transform="scale(0.015625)"/>
      <path id="ArialMT-74" d="M 1650 503 
L 1731 6 
Q 1494 -44 1306 -44 
Q 1000 -44 831 53 
Q 663 150 594 308 
Q 525 466 525 972 
L 525 2881 
L 113 2881 
L 113 3319 
L 525 3319 
L 525 4141 
L 1084 4478 
L 1084 3319 
L 1650 3319 
L 1650 2881 
L 1084 2881 
L 1084 941 
Q 1084 700 1114 631 
Q 1144 563 1211 522 
Q 1278 481 1403 481 
Q 1497 481 1650 503 
z
" transform="scale(0.015625)"/>
      <path id="ArialMT-44" d="M 494 0 
L 494 4581 
L 2072 4581 
Q 2606 4581 2888 4516 
Q 3281 4425 3559 4188 
Q 3922 3881 4101 3404 
Q 4281 2928 4281 2316 
Q 4281 1794 4159 1391 
Q 4038 988 3847 723 
Q 3656 459 3429 307 
Q 3203 156 2883 78 
Q 2563 0 2147 0 
L 494 0 
z
M 1100 541 
L 2078 541 
Q 2531 541 2789 625 
Q 3047 709 3200 863 
Q 3416 1078 3536 1442 
Q 3656 1806 3656 2325 
Q 3656 3044 3420 3430 
Q 3184 3816 2847 3947 
Q 2603 4041 2063 4041 
L 1100 4041 
L 1100 541 
z
" transform="scale(0.015625)"/>
      <path id="ArialMT-6f" d="M 213 1659 
Q 213 2581 725 3025 
Q 1153 3394 1769 3394 
Q 2453 3394 2887 2945 
Q 3322 2497 3322 1706 
Q 3322 1066 3130 698 
Q 2938 331 2570 128 
Q 2203 -75 1769 -75 
Q 1072 -75 642 372 
Q 213 819 213 1659 
z
M 791 1659 
Q 791 1022 1069 705 
Q 1347 388 1769 388 
Q 2188 388 2466 706 
Q 2744 1025 2744 1678 
Q 2744 2294 2464 2611 
Q 2184 2928 1769 2928 
Q 1347 2928 1069 2612 
Q 791 2297 791 1659 
z
" transform="scale(0.015625)"/>
      <path id="ArialMT-72" d="M 416 0 
L 416 3319 
L 922 3319 
L 922 2816 
Q 1116 3169 1280 3281 
Q 1444 3394 1641 3394 
Q 1925 3394 2219 3213 
L 2025 2691 
Q 1819 2813 1613 2813 
Q 1428 2813 1281 2702 
Q 1134 2591 1072 2394 
Q 978 2094 978 1738 
L 978 0 
L 416 0 
z
" transform="scale(0.015625)"/>
     </defs>
     <use xlink:href="#ArialMT-55"/>
     <use xlink:href="#ArialMT-6e" x="72.216797"/>
     <use xlink:href="#ArialMT-69" x="127.832031"/>
     <use xlink:href="#ArialMT-74" x="150.048828"/>
     <use xlink:href="#ArialMT-44" x="177.832031"/>
     <use xlink:href="#ArialMT-6f" x="250.048828"/>
     <use xlink:href="#ArialMT-6f" x="305.664062"/>
     <use xlink:href="#ArialMT-72" x="361.279297"/>
    </g>
   </g>
   <g id="text_2">
    <!-- Stairway -->
    <g transform="translate(219.118154 204.607811)rotate(-45)scale(0.1 -0.1)">
     <defs>
      <path id="ArialMT-53" d="M 288 1472 
L 859 1522 
Q 900 1178 1048 958 
Q 1197 738 1509 602 
Q 1822 466 2213 466 
Q 2559 466 2825 569 
Q 3091 672 3220 851 
Q 3350 1031 3350 1244 
Q 3350 1459 3225 1620 
Q 3100 1781 2813 1891 
Q 2628 1963 1997 2114 
Q 1366 2266 1113 2400 
Q 784 2572 623 2826 
Q 463 3081 463 3397 
Q 463 3744 659 4045 
Q 856 4347 1234 4503 
Q 1613 4659 2075 4659 
Q 2584 4659 2973 4495 
Q 3363 4331 3572 4012 
Q 3781 3694 3797 3291 
L 3216 3247 
Q 3169 3681 2898 3903 
Q 2628 4125 2100 4125 
Q 1550 4125 1298 3923 
Q 1047 3722 1047 3438 
Q 1047 3191 1225 3031 
Q 1400 2872 2139 2705 
Q 2878 2538 3153 2413 
Q 3553 2228 3743 1945 
Q 3934 1663 3934 1294 
Q 3934 928 3725 604 
Q 3516 281 3123 101 
Q 2731 -78 2241 -78 
Q 1619 -78 1198 103 
Q 778 284 539 648 
Q 300 1013 288 1472 
z
" transform="scale(0.015625)"/>
      <path id="ArialMT-61" d="M 2588 409 
Q 2275 144 1986 34 
Q 1697 -75 1366 -75 
Q 819 -75 525 192 
Q 231 459 231 875 
Q 231 1119 342 1320 
Q 453 1522 633 1644 
Q 813 1766 1038 1828 
Q 1203 1872 1538 1913 
Q 2219 1994 2541 2106 
Q 2544 2222 2544 2253 
Q 2544 2597 2384 2738 
Q 2169 2928 1744 2928 
Q 1347 2928 1158 2789 
Q 969 2650 878 2297 
L 328 2372 
Q 403 2725 575 2942 
Q 747 3159 1072 3276 
Q 1397 3394 1825 3394 
Q 2250 3394 2515 3294 
Q 2781 3194 2906 3042 
Q 3031 2891 3081 2659 
Q 3109 2516 3109 2141 
L 3109 1391 
Q 3109 606 3145 398 
Q 3181 191 3288 0 
L 2700 0 
Q 2613 175 2588 409 
z
M 2541 1666 
Q 2234 1541 1622 1453 
Q 1275 1403 1131 1340 
Q 988 1278 909 1158 
Q 831 1038 831 891 
Q 831 666 1001 516 
Q 1172 366 1500 366 
Q 1825 366 2078 508 
Q 2331 650 2450 897 
Q 2541 1088 2541 1459 
L 2541 1666 
z
" transform="scale(0.015625)"/>
      <path id="ArialMT-77" d="M 1034 0 
L 19 3319 
L 600 3319 
L 1128 1403 
L 1325 691 
Q 1338 744 1497 1375 
L 2025 3319 
L 2603 3319 
L 3100 1394 
L 3266 759 
L 3456 1400 
L 4025 3319 
L 4572 3319 
L 3534 0 
L 2950 0 
L 2422 1988 
L 2294 2553 
L 1622 0 
L 1034 0 
z
" transform="scale(0.015625)"/>
      <path id="ArialMT-79" d="M 397 -1278 
L 334 -750 
Q 519 -800 656 -800 
Q 844 -800 956 -737 
Q 1069 -675 1141 -563 
Q 1194 -478 1313 -144 
Q 1328 -97 1363 -6 
L 103 3319 
L 709 3319 
L 1400 1397 
Q 1534 1031 1641 628 
Q 1738 1016 1872 1384 
L 2581 3319 
L 3144 3319 
L 1881 -56 
Q 1678 -603 1566 -809 
Q 1416 -1088 1222 -1217 
Q 1028 -1347 759 -1347 
Q 597 -1347 397 -1278 
z
" transform="scale(0.015625)"/>
     </defs>
     <use xlink:href="#ArialMT-53"/>
     <use xlink:href="#ArialMT-74" x="66.699219"/>
     <use xlink:href="#ArialMT-61" x="94.482422"/>
     <use xlink:href="#ArialMT-69" x="150.097656"/>
     <use xlink:href="#ArialMT-72" x="172.314453"/>
     <use xlink:href="#ArialMT-77" x="205.615234"/>
     <use xlink:href="#ArialMT-61" x="277.832031"/>
     <use xlink:href="#ArialMT-79" x="333.447266"/>
    </g>
   </g>
   <g id="text_3">
    <!-- Entrance -->
    <g transform="translate(349.475866 220.093616)rotate(-45)scale(0.1 -0.1)">
     <defs>
      <path id="ArialMT-45" d="M 506 0 
L 506 4581 
L 3819 4581 
L 3819 4041 
L 1113 4041 
L 1113 2638 
L 3647 2638 
L 3647 2100 
L 1113 2100 
L 1113 541 
L 3925 541 
L 3925 0 
L 506 0 
z
" transform="scale(0.015625)"/>
      <path id="ArialMT-63" d="M 2588 1216 
L 3141 1144 
Q 3050 572 2676 248 
Q 2303 -75 1759 -75 
Q 1078 -75 664 370 
Q 250 816 250 1647 
Q 250 2184 428 2587 
Q 606 2991 970 3192 
Q 1334 3394 1763 3394 
Q 2303 3394 2647 3120 
Q 2991 2847 3088 2344 
L 2541 2259 
Q 2463 2594 2264 2762 
Q 2066 2931 1784 2931 
Q 1359 2931 1093 2626 
Q 828 2322 828 1663 
Q 828 994 1084 691 
Q 1341 388 1753 388 
Q 2084 388 2306 591 
Q 2528 794 2588 1216 
z
" transform="scale(0.015625)"/>
      <path id="ArialMT-65" d="M 2694 1069 
L 3275 997 
Q 3138 488 2766 206 
Q 2394 -75 1816 -75 
Q 1088 -75 661 373 
Q 234 822 234 1631 
Q 234 2469 665 2931 
Q 1097 3394 1784 3394 
Q 2450 3394 2872 2941 
Q 3294 2488 3294 1666 
Q 3294 1616 3291 1516 
L 816 1516 
Q 847 969 1125 678 
Q 1403 388 1819 388 
Q 2128 388 2347 550 
Q 2566 713 2694 1069 
z
M 847 1978 
L 2700 1978 
Q 2663 2397 2488 2606 
Q 2219 2931 1791 2931 
Q 1403 2931 1139 2672 
Q 875 2413 847 1978 
z
" transform="scale(0.015625)"/>
     </defs>
     <use xlink:href="#ArialMT-45"/>
     <use xlink:href="#ArialMT-6e" x="66.699219"/>
     <use xlink:href="#ArialMT-74" x="122.314453"/>
     <use xlink:href="#ArialMT-72" x="150.097656"/>
     <use xlink:href="#ArialMT-61" x="183.398438"/>
     <use xlink:href="#ArialMT-6e" x="239.013672"/>
     <use xlink:href="#ArialMT-63" x="294.628906"/>
     <use xlink:href="#ArialMT-65" x="344.628906"/>
    </g>
   </g>
   <g id="text_4">
    <!-- ElevatorDoor -->
    <g transform="translate(277.251518 207.535166)rotate(-45)scale(0.1 -0.1)">
     <defs>
      <path id="ArialMT-6c" d="M 409 0 
L 409 4581 
L 972 4581 
L 972 0 
L 409 0 
z
" transform="scale(0.015625)"/>
      <path id="ArialMT-76" d="M 1344 0 
L 81 3319 
L 675 3319 
L 1388 1331 
Q 1503 1009 1600 663 
Q 1675 925 1809 1294 
L 2547 3319 
L 3125 3319 
L 1869 0 
L 1344 0 
z
" transform="scale(0.015625)"/>
     </defs>
     <use xlink:href="#ArialMT-45"/>
     <use xlink:href="#ArialMT-6c" x="66.699219"/>
     <use xlink:href="#ArialMT-65" x="88.916016"/>
     <use xlink:href="#ArialMT-76" x="144.53125"/>
     <use xlink:href="#ArialMT-61" x="194.53125"/>
     <use xlink:href="#ArialMT-74" x="250.146484"/>
     <use xlink:href="#ArialMT-6f" x="277.929688"/>
     <use xlink:href="#ArialMT-72" x="333.544922"/>
     <use xlink:href="#ArialMT-44" x="366.845703"/>
     <use xlink:href="#ArialMT-6f" x="439.0625"/>
     <use xlink:href="#ArialMT-6f" x="494.677734"/>
     <use xlink:href="#ArialMT-72" x="550.292969"/>
    </g>
   </g>
   <g id="text_5">
    <!-- Elevator -->
    <g transform="translate(290.2374 225.526432)rotate(-45)scale(0.1 -0.1)">
     <use xlink:href="#ArialMT-45"/>
     <use xlink:href="#ArialMT-6c" x="66.699219"/>
     <use xlink:href="#ArialMT-65" x="88.916016"/>
     <use xlink:href="#ArialMT-76" x="144.53125"/>
     <use xlink:href="#ArialMT-61" x="194.53125"/>
     <use xlink:href="#ArialMT-74" x="250.146484"/>
     <use xlink:href="#ArialMT-6f" x="277.929688"/>
     <use xlink:href="#ArialMT-72" x="333.544922"/>
    </g>
   </g>
   <g id="text_6">
    <!-- InternalDoor -->
    <g transform="translate(119.89477 257.343646)rotate(-45)scale(0.1 -0.1)">
     <defs>
      <path id="ArialMT-49" d="M 597 0 
L 597 4581 
L 1203 4581 
L 1203 0 
L 597 0 
z
" transform="scale(0.015625)"/>
     </defs>
     <use xlink:href="#ArialMT-49"/>
     <use xlink:href="#ArialMT-6e" x="27.783203"/>
     <use xlink:href="#ArialMT-74" x="83.398438"/>
     <use xlink:href="#ArialMT-65" x="111.181641"/>
     <use xlink:href="#ArialMT-72" x="166.796875"/>
     <use xlink:href="#ArialMT-6e" x="200.097656"/>
     <use xlink:href="#ArialMT-61" x="255.712891"/>
     <use xlink:href="#ArialMT-6c" x="311.328125"/>
     <use xlink:href="#ArialMT-44" x="333.544922"/>
     <use xlink:href="#ArialMT-6f" x="405.761719"/>
     <use xlink:href="#ArialMT-6f" x="461.376953"/>
     <use xlink:href="#ArialMT-72" x="516.992188"/>
    </g>
   </g>
   <g id="text_7">
    <!-- Entrance -->
    <g transform="translate(116.458178 209.603097)rotate(-45)scale(0.1 -0.1)">
     <use xlink:href="#ArialMT-45"/>
     <use xlink:href="#ArialMT-6e" x="66.699219"/>
     <use xlink:href="#ArialMT-74" x="122.314453"/>
     <use xlink:href="#ArialMT-72" x="150.097656"/>
     <use xlink:href="#ArialMT-61" x="183.398438"/>
     <use xlink:href="#ArialMT-6e" x="239.013672"/>
     <use xlink:href="#ArialMT-63" x="294.628906"/>
     <use xlink:href="#ArialMT-65" x="344.628906"/>
    </g>
   </g>
   <g id="text_8">
    <!-- Bedroom -->
    <g transform="translate(111.333525 305.131116)rotate(-45)scale(0.1 -0.1)">
     <defs>
      <path id="ArialMT-42" d="M 469 0 
L 469 4581 
L 2188 4581 
Q 2713 4581 3030 4442 
Q 3347 4303 3526 4014 
Q 3706 3725 3706 3409 
Q 3706 3116 3547 2856 
Q 3388 2597 3066 2438 
Q 3481 2316 3704 2022 
Q 3928 1728 3928 1328 
Q 3928 1006 3792 729 
Q 3656 453 3456 303 
Q 3256 153 2954 76 
Q 2653 0 2216 0 
L 469 0 
z
M 1075 2656 
L 2066 2656 
Q 2469 2656 2644 2709 
Q 2875 2778 2992 2937 
Q 3109 3097 3109 3338 
Q 3109 3566 3000 3739 
Q 2891 3913 2687 3977 
Q 2484 4041 1991 4041 
L 1075 4041 
L 1075 2656 
z
M 1075 541 
L 2216 541 
Q 2509 541 2628 563 
Q 2838 600 2978 687 
Q 3119 775 3209 942 
Q 3300 1109 3300 1328 
Q 3300 1584 3169 1773 
Q 3038 1963 2805 2039 
Q 2572 2116 2134 2116 
L 1075 2116 
L 1075 541 
z
" transform="scale(0.015625)"/>
      <path id="ArialMT-64" d="M 2575 0 
L 2575 419 
Q 2259 -75 1647 -75 
Q 1250 -75 917 144 
Q 584 363 401 755 
Q 219 1147 219 1656 
Q 219 2153 384 2558 
Q 550 2963 881 3178 
Q 1213 3394 1622 3394 
Q 1922 3394 2156 3267 
Q 2391 3141 2538 2938 
L 2538 4581 
L 3097 4581 
L 3097 0 
L 2575 0 
z
M 797 1656 
Q 797 1019 1065 703 
Q 1334 388 1700 388 
Q 2069 388 2326 689 
Q 2584 991 2584 1609 
Q 2584 2291 2321 2609 
Q 2059 2928 1675 2928 
Q 1300 2928 1048 2622 
Q 797 2316 797 1656 
z
" transform="scale(0.015625)"/>
      <path id="ArialMT-6d" d="M 422 0 
L 422 3319 
L 925 3319 
L 925 2853 
Q 1081 3097 1340 3245 
Q 1600 3394 1931 3394 
Q 2300 3394 2536 3241 
Q 2772 3088 2869 2813 
Q 3263 3394 3894 3394 
Q 4388 3394 4653 3120 
Q 4919 2847 4919 2278 
L 4919 0 
L 4359 0 
L 4359 2091 
Q 4359 2428 4304 2576 
Q 4250 2725 4106 2815 
Q 3963 2906 3769 2906 
Q 3419 2906 3187 2673 
Q 2956 2441 2956 1928 
L 2956 0 
L 2394 0 
L 2394 2156 
Q 2394 2531 2256 2718 
Q 2119 2906 1806 2906 
Q 1569 2906 1367 2781 
Q 1166 2656 1075 2415 
Q 984 2175 984 1722 
L 984 0 
L 422 0 
z
" transform="scale(0.015625)"/>
     </defs>
     <use xlink:href="#ArialMT-42"/>
     <use xlink:href="#ArialMT-65" x="66.699219"/>
     <use xlink:href="#ArialMT-64" x="122.314453"/>
     <use xlink:href="#ArialMT-72" x="177.929688"/>
     <use xlink:href="#ArialMT-6f" x="211.230469"/>
     <use xlink:href="#ArialMT-6f" x="266.845703"/>
     <use xlink:href="#ArialMT-6d" x="322.460938"/>
    </g>
   </g>
   <g id="text_9">
    <!-- InternalDoor -->
    <g transform="translate(375.530972 245.295833)rotate(-45)scale(0.1 -0.1)">
     <use xlink:href="#ArialMT-49"/>
     <use xlink:href="#ArialMT-6e" x="27.783203"/>
     <use xlink:href="#ArialMT-74" x="83.398438"/>
     <use xlink:href="#ArialMT-65" x="111.181641"/>
     <use xlink:href="#ArialMT-72" x="166.796875"/>
     <use xlink:href="#ArialMT-6e" x="200.097656"/>
     <use xlink:href="#ArialMT-61" x="255.712891"/>
     <use xlink:href="#ArialMT-6c" x="311.328125"/>
     <use xlink:href="#ArialMT-44" x="333.544922"/>
     <use xlink:href="#ArialMT-6f" x="405.761719"/>
     <use xlink:href="#ArialMT-6f" x="461.376953"/>
     <use xlink:href="#ArialMT-72" x="516.992188"/>
    </g>
   </g>
   <g id="text_10">
    <!-- Bathroom -->
    <g transform="translate(412.943297 239.015022)rotate(-45)scale(0.1 -0.1)">
     <defs>
      <path id="ArialMT-68" d="M 422 0 
L 422 4581 
L 984 4581 
L 984 2938 
Q 1378 3394 1978 3394 
Q 2347 3394 2619 3248 
Q 2891 3103 3008 2847 
Q 3125 2591 3125 2103 
L 3125 0 
L 2563 0 
L 2563 2103 
Q 2563 2525 2380 2717 
Q 2197 2909 1863 2909 
Q 1613 2909 1392 2779 
Q 1172 2650 1078 2428 
Q 984 2206 984 1816 
L 984 0 
L 422 0 
z
" transform="scale(0.015625)"/>
     </defs>
     <use xlink:href="#ArialMT-42"/>
     <use xlink:href="#ArialMT-61" x="66.699219"/>
     <use xlink:href="#ArialMT-74" x="122.314453"/>
     <use xlink:href="#ArialMT-68" x="150.097656"/>
     <use xlink:href="#ArialMT-72" x="205.712891"/>
     <use xlink:href="#ArialMT-6f" x="239.013672"/>
     <use xlink:href="#ArialMT-6f" x="294.628906"/>
     <use xlink:href="#ArialMT-6d" x="350.244141"/>
    </g>
   </g>
   <g id="text_11">
    <!-- BalconyDoor -->
    <g transform="translate(168.933875 82.951904)rotate(-45)scale(0.1 -0.1)">
     <use xlink:href="#ArialMT-42"/>
     <use xlink:href="#ArialMT-61" x="66.699219"/>
     <use xlink:href="#ArialMT-6c" x="122.314453"/>
     <use xlink:href="#ArialMT-63" x="144.53125"/>
     <use xlink:href="#ArialMT-6f" x="194.53125"/>
     <use xlink:href="#ArialMT-6e" x="250.146484"/>
     <use xlink:href="#ArialMT-79" x="305.761719"/>
     <use xlink:href="#ArialMT-44" x="355.761719"/>
     <use xlink:href="#ArialMT-6f" x="427.978516"/>
     <use xlink:href="#ArialMT-6f" x="483.59375"/>
     <use xlink:href="#ArialMT-72" x="539.208984"/>
    </g>
   </g>
   <g id="text_12">
    <!-- LivingRoom -->
    <g transform="translate(109.430666 113.448538)rotate(-45)scale(0.1 -0.1)">
     <defs>
      <path id="ArialMT-4c" d="M 469 0 
L 469 4581 
L 1075 4581 
L 1075 541 
L 3331 541 
L 3331 0 
L 469 0 
z
" transform="scale(0.015625)"/>
      <path id="ArialMT-67" d="M 319 -275 
L 866 -356 
Q 900 -609 1056 -725 
Q 1266 -881 1628 -881 
Q 2019 -881 2231 -725 
Q 2444 -569 2519 -288 
Q 2563 -116 2559 434 
Q 2191 0 1641 0 
Q 956 0 581 494 
Q 206 988 206 1678 
Q 206 2153 378 2554 
Q 550 2956 876 3175 
Q 1203 3394 1644 3394 
Q 2231 3394 2613 2919 
L 2613 3319 
L 3131 3319 
L 3131 450 
Q 3131 -325 2973 -648 
Q 2816 -972 2473 -1159 
Q 2131 -1347 1631 -1347 
Q 1038 -1347 672 -1080 
Q 306 -813 319 -275 
z
M 784 1719 
Q 784 1066 1043 766 
Q 1303 466 1694 466 
Q 2081 466 2343 764 
Q 2606 1063 2606 1700 
Q 2606 2309 2336 2618 
Q 2066 2928 1684 2928 
Q 1309 2928 1046 2623 
Q 784 2319 784 1719 
z
" transform="scale(0.015625)"/>
      <path id="ArialMT-52" d="M 503 0 
L 503 4581 
L 2534 4581 
Q 3147 4581 3465 4457 
Q 3784 4334 3975 4021 
Q 4166 3709 4166 3331 
Q 4166 2844 3850 2509 
Q 3534 2175 2875 2084 
Q 3116 1969 3241 1856 
Q 3506 1613 3744 1247 
L 4541 0 
L 3778 0 
L 3172 953 
Q 2906 1366 2734 1584 
Q 2563 1803 2427 1890 
Q 2291 1978 2150 2013 
Q 2047 2034 1813 2034 
L 1109 2034 
L 1109 0 
L 503 0 
z
M 1109 2559 
L 2413 2559 
Q 2828 2559 3062 2645 
Q 3297 2731 3419 2920 
Q 3541 3109 3541 3331 
Q 3541 3656 3305 3865 
Q 3069 4075 2559 4075 
L 1109 4075 
L 1109 2559 
z
" transform="scale(0.015625)"/>
     </defs>
     <use xlink:href="#ArialMT-4c"/>
     <use xlink:href="#ArialMT-69" x="55.615234"/>
     <use xlink:href="#ArialMT-76" x="77.832031"/>
     <use xlink:href="#ArialMT-69" x="127.832031"/>
     <use xlink:href="#ArialMT-6e" x="150.048828"/>
     <use xlink:href="#ArialMT-67" x="205.664062"/>
     <use xlink:href="#ArialMT-52" x="261.279297"/>
     <use xlink:href="#ArialMT-6f" x="333.496094"/>
     <use xlink:href="#ArialMT-6f" x="389.111328"/>
     <use xlink:href="#ArialMT-6d" x="444.726562"/>
    </g>
   </g>
   <g id="text_13">
    <!-- Loggia -->
    <g transform="translate(169.65851 40.639329)rotate(-45)scale(0.1 -0.1)">
     <use xlink:href="#ArialMT-4c"/>
     <use xlink:href="#ArialMT-6f" x="55.615234"/>
     <use xlink:href="#ArialMT-67" x="111.230469"/>
     <use xlink:href="#ArialMT-67" x="166.845703"/>
     <use xlink:href="#ArialMT-69" x="222.460938"/>
     <use xlink:href="#ArialMT-61" x="244.677734"/>
    </g>
   </g>
   <g id="text_14">
    <!-- InternalDoor -->
    <g transform="translate(335.429888 278.64427)rotate(-45)scale(0.1 -0.1)">
     <use xlink:href="#ArialMT-49"/>
     <use xlink:href="#ArialMT-6e" x="27.783203"/>
     <use xlink:href="#ArialMT-74" x="83.398438"/>
     <use xlink:href="#ArialMT-65" x="111.181641"/>
     <use xlink:href="#ArialMT-72" x="166.796875"/>
     <use xlink:href="#ArialMT-6e" x="200.097656"/>
     <use xlink:href="#ArialMT-61" x="255.712891"/>
     <use xlink:href="#ArialMT-6c" x="311.328125"/>
     <use xlink:href="#ArialMT-44" x="333.544922"/>
     <use xlink:href="#ArialMT-6f" x="405.761719"/>
     <use xlink:href="#ArialMT-6f" x="461.376953"/>
     <use xlink:href="#ArialMT-72" x="516.992188"/>
    </g>
   </g>
   <g id="text_15">
    <!-- Bedroom -->
    <g transform="translate(382.566038 312.17824)rotate(-45)scale(0.1 -0.1)">
     <use xlink:href="#ArialMT-42"/>
     <use xlink:href="#ArialMT-65" x="66.699219"/>
     <use xlink:href="#ArialMT-64" x="122.314453"/>
     <use xlink:href="#ArialMT-72" x="177.929688"/>
     <use xlink:href="#ArialMT-6f" x="211.230469"/>
     <use xlink:href="#ArialMT-6f" x="266.845703"/>
     <use xlink:href="#ArialMT-6d" x="322.460938"/>
    </g>
   </g>
   <g id="text_16">
    <!-- InternalDoor -->
    <g transform="translate(119.891801 172.149347)rotate(-45)scale(0.1 -0.1)">
     <use xlink:href="#ArialMT-49"/>
     <use xlink:href="#ArialMT-6e" x="27.783203"/>
     <use xlink:href="#ArialMT-74" x="83.398438"/>
     <use xlink:href="#ArialMT-65" x="111.181641"/>
     <use xlink:href="#ArialMT-72" x="166.796875"/>
     <use xlink:href="#ArialMT-6e" x="200.097656"/>
     <use xlink:href="#ArialMT-61" x="255.712891"/>
     <use xlink:href="#ArialMT-6c" x="311.328125"/>
     <use xlink:href="#ArialMT-44" x="333.544922"/>
     <use xlink:href="#ArialMT-6f" x="405.761719"/>
     <use xlink:href="#ArialMT-6f" x="461.376953"/>
     <use xlink:href="#ArialMT-72" x="516.992188"/>
    </g>
   </g>
   <g id="text_17">
    <!-- UnitDoor -->
    <g transform="translate(148.013855 185.887244)rotate(-45)scale(0.1 -0.1)">
     <use xlink:href="#ArialMT-55"/>
     <use xlink:href="#ArialMT-6e" x="72.216797"/>
     <use xlink:href="#ArialMT-69" x="127.832031"/>
     <use xlink:href="#ArialMT-74" x="150.048828"/>
     <use xlink:href="#ArialMT-44" x="177.832031"/>
     <use xlink:href="#ArialMT-6f" x="250.048828"/>
     <use xlink:href="#ArialMT-6f" x="305.664062"/>
     <use xlink:href="#ArialMT-72" x="361.279297"/>
    </g>
   </g>
   <g id="text_18">
    <!-- InternalDoor -->
    <g transform="translate(335.429888 172.149347)rotate(-45)scale(0.1 -0.1)">
     <use xlink:href="#ArialMT-49"/>
     <use xlink:href="#ArialMT-6e" x="27.783203"/>
     <use xlink:href="#ArialMT-74" x="83.398438"/>
     <use xlink:href="#ArialMT-65" x="111.181641"/>
     <use xlink:href="#ArialMT-72" x="166.796875"/>
     <use xlink:href="#ArialMT-6e" x="200.097656"/>
     <use xlink:href="#ArialMT-61" x="255.712891"/>
     <use xlink:href="#ArialMT-6c" x="311.328125"/>
     <use xlink:href="#ArialMT-44" x="333.544922"/>
     <use xlink:href="#ArialMT-6f" x="405.761719"/>
     <use xlink:href="#ArialMT-6f" x="461.376953"/>
     <use xlink:href="#ArialMT-72" x="516.992188"/>
    </g>
   </g>
   <g id="text_19">
    <!-- LivingRoom -->
    <g transform="translate(346.455323 113.569494)rotate(-45)scale(0.1 -0.1)">
     <use xlink:href="#ArialMT-4c"/>
     <use xlink:href="#ArialMT-69" x="55.615234"/>
     <use xlink:href="#ArialMT-76" x="77.832031"/>
     <use xlink:href="#ArialMT-69" x="127.832031"/>
     <use xlink:href="#ArialMT-6e" x="150.048828"/>
     <use xlink:href="#ArialMT-67" x="205.664062"/>
     <use xlink:href="#ArialMT-52" x="261.279297"/>
     <use xlink:href="#ArialMT-6f" x="333.496094"/>
     <use xlink:href="#ArialMT-6f" x="389.111328"/>
     <use xlink:href="#ArialMT-6d" x="444.726562"/>
    </g>
   </g>
   <g id="text_20">
    <!-- BalconyDoor -->
    <g transform="translate(284.520007 82.951904)rotate(-45)scale(0.1 -0.1)">
     <use xlink:href="#ArialMT-42"/>
     <use xlink:href="#ArialMT-61" x="66.699219"/>
     <use xlink:href="#ArialMT-6c" x="122.314453"/>
     <use xlink:href="#ArialMT-63" x="144.53125"/>
     <use xlink:href="#ArialMT-6f" x="194.53125"/>
     <use xlink:href="#ArialMT-6e" x="250.146484"/>
     <use xlink:href="#ArialMT-79" x="305.761719"/>
     <use xlink:href="#ArialMT-44" x="355.761719"/>
     <use xlink:href="#ArialMT-6f" x="427.978516"/>
     <use xlink:href="#ArialMT-6f" x="483.59375"/>
     <use xlink:href="#ArialMT-72" x="539.208984"/>
    </g>
   </g>
   <g id="text_21">
    <!-- Loggia -->
    <g transform="translate(302.867971 40.64613)rotate(-45)scale(0.1 -0.1)">
     <use xlink:href="#ArialMT-4c"/>
     <use xlink:href="#ArialMT-6f" x="55.615234"/>
     <use xlink:href="#ArialMT-67" x="111.230469"/>
     <use xlink:href="#ArialMT-67" x="166.845703"/>
     <use xlink:href="#ArialMT-69" x="222.460938"/>
     <use xlink:href="#ArialMT-61" x="244.677734"/>
    </g>
   </g>
   <g id="text_22">
    <!-- InternalDoor -->
    <g transform="translate(312.812023 266.856696)rotate(-45)scale(0.1 -0.1)">
     <use xlink:href="#ArialMT-49"/>
     <use xlink:href="#ArialMT-6e" x="27.783203"/>
     <use xlink:href="#ArialMT-74" x="83.398438"/>
     <use xlink:href="#ArialMT-65" x="111.181641"/>
     <use xlink:href="#ArialMT-72" x="166.796875"/>
     <use xlink:href="#ArialMT-6e" x="200.097656"/>
     <use xlink:href="#ArialMT-61" x="255.712891"/>
     <use xlink:href="#ArialMT-6c" x="311.328125"/>
     <use xlink:href="#ArialMT-44" x="333.544922"/>
     <use xlink:href="#ArialMT-6f" x="405.761719"/>
     <use xlink:href="#ArialMT-6f" x="461.376953"/>
     <use xlink:href="#ArialMT-72" x="516.992188"/>
    </g>
   </g>
   <g id="text_23">
    <!-- Bedroom -->
    <g transform="translate(256.902451 301.642872)rotate(-45)scale(0.1 -0.1)">
     <use xlink:href="#ArialMT-42"/>
     <use xlink:href="#ArialMT-65" x="66.699219"/>
     <use xlink:href="#ArialMT-64" x="122.314453"/>
     <use xlink:href="#ArialMT-72" x="177.929688"/>
     <use xlink:href="#ArialMT-6f" x="211.230469"/>
     <use xlink:href="#ArialMT-6f" x="266.845703"/>
     <use xlink:href="#ArialMT-6d" x="322.460938"/>
    </g>
   </g>
   <g id="text_24">
    <!-- InternalDoor -->
    <g transform="translate(375.533764 184.125441)rotate(-45)scale(0.1 -0.1)">
     <use xlink:href="#ArialMT-49"/>
     <use xlink:href="#ArialMT-6e" x="27.783203"/>
     <use xlink:href="#ArialMT-74" x="83.398438"/>
     <use xlink:href="#ArialMT-65" x="111.181641"/>
     <use xlink:href="#ArialMT-72" x="166.796875"/>
     <use xlink:href="#ArialMT-6e" x="200.097656"/>
     <use xlink:href="#ArialMT-61" x="255.712891"/>
     <use xlink:href="#ArialMT-6c" x="311.328125"/>
     <use xlink:href="#ArialMT-44" x="333.544922"/>
     <use xlink:href="#ArialMT-6f" x="405.761719"/>
     <use xlink:href="#ArialMT-6f" x="461.376953"/>
     <use xlink:href="#ArialMT-72" x="516.992188"/>
    </g>
   </g>
   <g id="text_25">
    <!-- Toilet -->
    <g transform="translate(420.018642 176.555417)rotate(-45)scale(0.1 -0.1)">
     <defs>
      <path id="ArialMT-54" d="M 1659 0 
L 1659 4041 
L 150 4041 
L 150 4581 
L 3781 4581 
L 3781 4041 
L 2266 4041 
L 2266 0 
L 1659 0 
z
" transform="scale(0.015625)"/>
     </defs>
     <use xlink:href="#ArialMT-54"/>
     <use xlink:href="#ArialMT-6f" x="49.958984"/>
     <use xlink:href="#ArialMT-69" x="105.574219"/>
     <use xlink:href="#ArialMT-6c" x="127.791016"/>
     <use xlink:href="#ArialMT-65" x="150.007812"/>
     <use xlink:href="#ArialMT-74" x="205.623047"/>
    </g>
   </g>
   <g id="text_26">
    <!-- InternalDoor -->
    <g transform="translate(79.793687 184.123392)rotate(-45)scale(0.1 -0.1)">
     <use xlink:href="#ArialMT-49"/>
     <use xlink:href="#ArialMT-6e" x="27.783203"/>
     <use xlink:href="#ArialMT-74" x="83.398438"/>
     <use xlink:href="#ArialMT-65" x="111.181641"/>
     <use xlink:href="#ArialMT-72" x="166.796875"/>
     <use xlink:href="#ArialMT-6e" x="200.097656"/>
     <use xlink:href="#ArialMT-61" x="255.712891"/>
     <use xlink:href="#ArialMT-6c" x="311.328125"/>
     <use xlink:href="#ArialMT-44" x="333.544922"/>
     <use xlink:href="#ArialMT-6f" x="405.761719"/>
     <use xlink:href="#ArialMT-6f" x="461.376953"/>
     <use xlink:href="#ArialMT-72" x="516.992188"/>
    </g>
   </g>
   <g id="text_27">
    <!-- Toilet -->
    <g transform="translate(57.043577 176.553233)rotate(-45)scale(0.1 -0.1)">
     <use xlink:href="#ArialMT-54"/>
     <use xlink:href="#ArialMT-6f" x="49.958984"/>
     <use xlink:href="#ArialMT-69" x="105.574219"/>
     <use xlink:href="#ArialMT-6c" x="127.791016"/>
     <use xlink:href="#ArialMT-65" x="150.007812"/>
     <use xlink:href="#ArialMT-74" x="205.623047"/>
    </g>
   </g>
   <g id="text_28">
    <!-- InternalDoor -->
    <g transform="translate(79.79648 245.293784)rotate(-45)scale(0.1 -0.1)">
     <use xlink:href="#ArialMT-49"/>
     <use xlink:href="#ArialMT-6e" x="27.783203"/>
     <use xlink:href="#ArialMT-74" x="83.398438"/>
     <use xlink:href="#ArialMT-65" x="111.181641"/>
     <use xlink:href="#ArialMT-72" x="166.796875"/>
     <use xlink:href="#ArialMT-6e" x="200.097656"/>
     <use xlink:href="#ArialMT-61" x="255.712891"/>
     <use xlink:href="#ArialMT-6c" x="311.328125"/>
     <use xlink:href="#ArialMT-44" x="333.544922"/>
     <use xlink:href="#ArialMT-6f" x="405.761719"/>
     <use xlink:href="#ArialMT-6f" x="461.376953"/>
     <use xlink:href="#ArialMT-72" x="516.992188"/>
    </g>
   </g>
   <g id="text_29">
    <!-- Bathroom -->
    <g transform="translate(49.968378 239.015385)rotate(-45)scale(0.1 -0.1)">
     <use xlink:href="#ArialMT-42"/>
     <use xlink:href="#ArialMT-61" x="66.699219"/>
     <use xlink:href="#ArialMT-74" x="122.314453"/>
     <use xlink:href="#ArialMT-68" x="150.097656"/>
     <use xlink:href="#ArialMT-72" x="205.712891"/>
     <use xlink:href="#ArialMT-6f" x="239.013672"/>
     <use xlink:href="#ArialMT-6f" x="294.628906"/>
     <use xlink:href="#ArialMT-6d" x="350.244141"/>
    </g>
   </g>
   <g id="text_30">
    <!-- Shaft -->
    <g transform="translate(57.040411 194.302527)rotate(-45)scale(0.1 -0.1)">
     <defs>
      <path id="ArialMT-66" d="M 556 0 
L 556 2881 
L 59 2881 
L 59 3319 
L 556 3319 
L 556 3672 
Q 556 4006 616 4169 
Q 697 4388 901 4523 
Q 1106 4659 1475 4659 
Q 1713 4659 2000 4603 
L 1916 4113 
Q 1741 4144 1584 4144 
Q 1328 4144 1222 4034 
Q 1116 3925 1116 3625 
L 1116 3319 
L 1763 3319 
L 1763 2881 
L 1116 2881 
L 1116 0 
L 556 0 
z
" transform="scale(0.015625)"/>
     </defs>
     <use xlink:href="#ArialMT-53"/>
     <use xlink:href="#ArialMT-68" x="66.699219"/>
     <use xlink:href="#ArialMT-61" x="122.314453"/>
     <use xlink:href="#ArialMT-66" x="177.929688"/>
     <use xlink:href="#ArialMT-74" x="205.712891"/>
    </g>
   </g>
   <g id="text_31">
    <!-- Shaft -->
    <g transform="translate(420.015469 194.302527)rotate(-45)scale(0.1 -0.1)">
     <use xlink:href="#ArialMT-53"/>
     <use xlink:href="#ArialMT-68" x="66.699219"/>
     <use xlink:href="#ArialMT-61" x="122.314453"/>
     <use xlink:href="#ArialMT-66" x="177.929688"/>
     <use xlink:href="#ArialMT-74" x="205.712891"/>
    </g>
   </g>
  </g>
 </g>
 <defs>
  <clipPath id="p7089df4fd0">
   <rect x="10.8" y="10.8" width="439.2" height="324"/>
  </clipPath>
 </defs>
</svg>
