<?xml version="1.0" encoding="utf-8" standalone="no"?>
<!DOCTYPE svg PUBLIC "-//W3C//DTD SVG 1.1//EN"
  "http://www.w3.org/Graphics/SVG/1.1/DTD/svg11.dtd">
<svg xmlns:xlink="http://www.w3.org/1999/xlink" width="460.8pt" height="345.6pt" viewBox="0 0 460.8 345.6" xmlns="http://www.w3.org/2000/svg" version="1.1">
 <metadata>
  <rdf:RDF xmlns:dc="http://purl.org/dc/elements/1.1/" xmlns:cc="http://creativecommons.org/ns#" xmlns:rdf="http://www.w3.org/1999/02/22-rdf-syntax-ns#">
   <cc:Work>
    <dc:type rdf:resource="http://purl.org/dc/dcmitype/StillImage"/>
    <dc:date>2023-04-03T16:41:09.237931</dc:date>
    <dc:format>image/svg+xml</dc:format>
    <dc:creator>
     <cc:Agent>
      <dc:title>Matplotlib v3.5.1, https://matplotlib.org/</dc:title>
     </cc:Agent>
    </dc:creator>
   </cc:Work>
  </rdf:RDF>
 </metadata>
 <defs>
  <style type="text/css">*{stroke-linejoin: round; stroke-linecap: butt}</style>
 </defs>
 <g id="figure_1">
  <g id="patch_1">
   <path d="M 0 345.6 
L 460.8 345.6 
L 460.8 0 
L 0 0 
z
" style="fill: #ffffff"/>
  </g>
  <g id="axes_1">
   <g id="LineCollection_1">
    <path d="M 279.551719 48.017475 
L 271.045706 130.178976 
" clip-path="url(#p1cf8435bf9)" style="fill: none; stroke: #00ffff"/>
    <path d="M 271.045706 130.178976 
L 371.277293 206.348125 
" clip-path="url(#p1cf8435bf9)" style="fill: none; stroke: #00ffff"/>
    <path d="M 271.045706 130.178976 
L 344.191487 136.243229 
" clip-path="url(#p1cf8435bf9)" style="fill: none; stroke: #00ffff"/>
    <path d="M 271.045706 130.178976 
L 387.328036 224.681201 
" clip-path="url(#p1cf8435bf9)" style="fill: none; stroke: #00ffff"/>
    <path d="M 271.045706 130.178976 
L 373.299197 234.407104 
" clip-path="url(#p1cf8435bf9)" style="fill: none; stroke: #00ffff"/>
    <path d="M 271.045706 130.178976 
L 281.484731 234.407104 
" clip-path="url(#p1cf8435bf9)" style="fill: none; stroke: #00ffff"/>
    <path d="M 271.045706 130.178976 
L 225.409174 126.987526 
" clip-path="url(#p1cf8435bf9)" style="fill: none; stroke: #00ffff"/>
    <path d="M 271.045706 130.178976 
L 220.490402 221.200915 
" clip-path="url(#p1cf8435bf9)" style="fill: none; stroke: #00ffff"/>
    <path d="M 271.045706 130.178976 
L 371.357961 206.263716 
" clip-path="url(#p1cf8435bf9)" style="fill: none; stroke: #00ffff"/>
    <path d="M 271.045706 130.178976 
L 306.568567 234.423482 
" clip-path="url(#p1cf8435bf9)" style="fill: none; stroke: #00ffff"/>
    <path d="M 271.045706 130.178976 
L 250.38607 234.423482 
" clip-path="url(#p1cf8435bf9)" style="fill: none; stroke: #00ffff"/>
    <path d="M 371.277293 206.348125 
L 368.081246 180.990087 
" clip-path="url(#p1cf8435bf9)" style="fill: none; stroke: #00ffff"/>
    <path d="M 368.081246 180.990087 
L 371.357961 206.263716 
" clip-path="url(#p1cf8435bf9)" style="fill: none; stroke: #00ffff"/>
    <path d="M 192.164375 203.91287 
L 203.996059 163.660678 
" clip-path="url(#p1cf8435bf9)" style="fill: none; stroke: #00ffff"/>
    <path d="M 192.164375 203.91287 
L 57.696576 200.279514 
" clip-path="url(#p1cf8435bf9)" style="fill: none; stroke: #00ffff"/>
    <path d="M 203.996059 163.660678 
L 225.409174 126.987526 
" clip-path="url(#p1cf8435bf9)" style="fill: none; stroke: #00ffff"/>
    <path d="M 57.696576 200.279514 
L 220.33297 307.549172 
" clip-path="url(#p1cf8435bf9)" style="fill: none; stroke: #00ffff"/>
    <path d="M 57.696576 200.279514 
L 48.464647 125.993519 
" clip-path="url(#p1cf8435bf9)" style="fill: none; stroke: #00ffff"/>
    <path d="M 57.696576 200.279514 
L 220.490402 221.200915 
" clip-path="url(#p1cf8435bf9)" style="fill: none; stroke: #00ffff"/>
    <path d="M 344.191487 136.243229 
L 382.395689 97.224296 
" clip-path="url(#p1cf8435bf9)" style="fill: none; stroke: #00ffff"/>
    <path d="M 382.395689 97.224296 
L 376.562114 48.017475 
" clip-path="url(#p1cf8435bf9)" style="fill: none; stroke: #00ffff"/>
    <path d="M 382.395689 97.224296 
L 387.308519 136.361936 
" clip-path="url(#p1cf8435bf9)" style="fill: none; stroke: #00ffff"/>
    <path d="M 220.33297 307.549172 
L 259.38794 296.019105 
" clip-path="url(#p1cf8435bf9)" style="fill: none; stroke: #00ffff"/>
    <path d="M 259.38794 296.019105 
L 281.484731 234.407104 
" clip-path="url(#p1cf8435bf9)" style="fill: none; stroke: #00ffff"/>
    <path d="M 387.328036 224.681201 
L 406.892945 180.033361 
" clip-path="url(#p1cf8435bf9)" style="fill: none; stroke: #00ffff"/>
    <path d="M 406.892945 180.033361 
L 387.308519 136.361936 
" clip-path="url(#p1cf8435bf9)" style="fill: none; stroke: #00ffff"/>
    <path d="M 48.464647 125.993519 
L 53.189578 98.827761 
" clip-path="url(#p1cf8435bf9)" style="fill: none; stroke: #00ffff"/>
    <path d="M 373.299197 234.407104 
L 395.527545 290.824272 
" clip-path="url(#p1cf8435bf9)" style="fill: none; stroke: #00ffff"/>
    <path d="M 306.568567 234.423482 
L 328.806023 290.824272 
" clip-path="url(#p1cf8435bf9)" style="fill: none; stroke: #00ffff"/>
    <path d="M 250.38607 234.423482 
L 244.486522 243.06152 
" clip-path="url(#p1cf8435bf9)" style="fill: none; stroke: #00ffff"/>
   </g>
   <g id="PathCollection_1">
    <defs>
     <path id="m5e5bba1c0d" d="M 0 3.162278 
C 0.838646 3.162278 1.643056 2.82908 2.236068 2.236068 
C 2.82908 1.643056 3.162278 0.838646 3.162278 0 
C 3.162278 -0.838646 2.82908 -1.643056 2.236068 -2.236068 
C 1.643056 -2.82908 0.838646 -3.162278 0 -3.162278 
C -0.838646 -3.162278 -1.643056 -2.82908 -2.236068 -2.236068 
C -2.82908 -1.643056 -3.162278 -0.838646 -3.162278 0 
C -3.162278 0.838646 -2.82908 1.643056 -2.236068 2.236068 
C -1.643056 2.82908 -0.838646 3.162278 0 3.162278 
z
" style="stroke: #0000ff"/>
    </defs>
    <g clip-path="url(#p1cf8435bf9)">
     <use xlink:href="#m5e5bba1c0d" x="279.551719" y="48.017475" style="fill: #0000ff; stroke: #0000ff"/>
     <use xlink:href="#m5e5bba1c0d" x="271.045706" y="130.178976" style="fill: #0000ff; stroke: #0000ff"/>
     <use xlink:href="#m5e5bba1c0d" x="371.277293" y="206.348125" style="fill: #0000ff; stroke: #0000ff"/>
     <use xlink:href="#m5e5bba1c0d" x="368.081246" y="180.990087" style="fill: #0000ff; stroke: #0000ff"/>
     <use xlink:href="#m5e5bba1c0d" x="192.164375" y="203.91287" style="fill: #0000ff; stroke: #0000ff"/>
     <use xlink:href="#m5e5bba1c0d" x="203.996059" y="163.660678" style="fill: #0000ff; stroke: #0000ff"/>
     <use xlink:href="#m5e5bba1c0d" x="57.696576" y="200.279514" style="fill: #0000ff; stroke: #0000ff"/>
     <use xlink:href="#m5e5bba1c0d" x="344.191487" y="136.243229" style="fill: #0000ff; stroke: #0000ff"/>
     <use xlink:href="#m5e5bba1c0d" x="382.395689" y="97.224296" style="fill: #0000ff; stroke: #0000ff"/>
     <use xlink:href="#m5e5bba1c0d" x="220.33297" y="307.549172" style="fill: #0000ff; stroke: #0000ff"/>
     <use xlink:href="#m5e5bba1c0d" x="259.38794" y="296.019105" style="fill: #0000ff; stroke: #0000ff"/>
     <use xlink:href="#m5e5bba1c0d" x="376.562114" y="48.017475" style="fill: #0000ff; stroke: #0000ff"/>
     <use xlink:href="#m5e5bba1c0d" x="387.328036" y="224.681201" style="fill: #0000ff; stroke: #0000ff"/>
     <use xlink:href="#m5e5bba1c0d" x="406.892945" y="180.033361" style="fill: #0000ff; stroke: #0000ff"/>
     <use xlink:href="#m5e5bba1c0d" x="48.464647" y="125.993519" style="fill: #0000ff; stroke: #0000ff"/>
     <use xlink:href="#m5e5bba1c0d" x="53.189578" y="98.827761" style="fill: #0000ff; stroke: #0000ff"/>
     <use xlink:href="#m5e5bba1c0d" x="373.299197" y="234.407104" style="fill: #0000ff; stroke: #0000ff"/>
     <use xlink:href="#m5e5bba1c0d" x="395.527545" y="290.824272" style="fill: #0000ff; stroke: #0000ff"/>
     <use xlink:href="#m5e5bba1c0d" x="281.484731" y="234.407104" style="fill: #0000ff; stroke: #0000ff"/>
     <use xlink:href="#m5e5bba1c0d" x="387.308519" y="136.361936" style="fill: #0000ff; stroke: #0000ff"/>
     <use xlink:href="#m5e5bba1c0d" x="225.409174" y="126.987526" style="fill: #0000ff; stroke: #0000ff"/>
     <use xlink:href="#m5e5bba1c0d" x="220.490402" y="221.200915" style="fill: #0000ff; stroke: #0000ff"/>
     <use xlink:href="#m5e5bba1c0d" x="371.357961" y="206.263716" style="fill: #0000ff; stroke: #0000ff"/>
     <use xlink:href="#m5e5bba1c0d" x="306.568567" y="234.423482" style="fill: #0000ff; stroke: #0000ff"/>
     <use xlink:href="#m5e5bba1c0d" x="328.806023" y="290.824272" style="fill: #0000ff; stroke: #0000ff"/>
     <use xlink:href="#m5e5bba1c0d" x="250.38607" y="234.423482" style="fill: #0000ff; stroke: #0000ff"/>
     <use xlink:href="#m5e5bba1c0d" x="244.486522" y="243.06152" style="fill: #0000ff; stroke: #0000ff"/>
     <use xlink:href="#m5e5bba1c0d" x="243.62975" y="197.674811" style="fill: #0000ff; stroke: #0000ff"/>
     <use xlink:href="#m5e5bba1c0d" x="344.675495" y="197.674811" style="fill: #0000ff; stroke: #0000ff"/>
     <use xlink:href="#m5e5bba1c0d" x="425.407873" y="169.86276" style="fill: #0000ff; stroke: #0000ff"/>
    </g>
   </g>
   <g id="text_1">
    <!-- BalconyDoor -->
    <g transform="translate(272.303101 59.194567)rotate(-45)scale(0.1 -0.1)">
     <defs>
      <path id="ArialMT-42" d="M 469 0 
L 469 4581 
L 2188 4581 
Q 2713 4581 3030 4442 
Q 3347 4303 3526 4014 
Q 3706 3725 3706 3409 
Q 3706 3116 3547 2856 
Q 3388 2597 3066 2438 
Q 3481 2316 3704 2022 
Q 3928 1728 3928 1328 
Q 3928 1006 3792 729 
Q 3656 453 3456 303 
Q 3256 153 2954 76 
Q 2653 0 2216 0 
L 469 0 
z
M 1075 2656 
L 2066 2656 
Q 2469 2656 2644 2709 
Q 2875 2778 2992 2937 
Q 3109 3097 3109 3338 
Q 3109 3566 3000 3739 
Q 2891 3913 2687 3977 
Q 2484 4041 1991 4041 
L 1075 4041 
L 1075 2656 
z
M 1075 541 
L 2216 541 
Q 2509 541 2628 563 
Q 2838 600 2978 687 
Q 3119 775 3209 942 
Q 3300 1109 3300 1328 
Q 3300 1584 3169 1773 
Q 3038 1963 2805 2039 
Q 2572 2116 2134 2116 
L 1075 2116 
L 1075 541 
z
" transform="scale(0.015625)"/>
      <path id="ArialMT-61" d="M 2588 409 
Q 2275 144 1986 34 
Q 1697 -75 1366 -75 
Q 819 -75 525 192 
Q 231 459 231 875 
Q 231 1119 342 1320 
Q 453 1522 633 1644 
Q 813 1766 1038 1828 
Q 1203 1872 1538 1913 
Q 2219 1994 2541 2106 
Q 2544 2222 2544 2253 
Q 2544 2597 2384 2738 
Q 2169 2928 1744 2928 
Q 1347 2928 1158 2789 
Q 969 2650 878 2297 
L 328 2372 
Q 403 2725 575 2942 
Q 747 3159 1072 3276 
Q 1397 3394 1825 3394 
Q 2250 3394 2515 3294 
Q 2781 3194 2906 3042 
Q 3031 2891 3081 2659 
Q 3109 2516 3109 2141 
L 3109 1391 
Q 3109 606 3145 398 
Q 3181 191 3288 0 
L 2700 0 
Q 2613 175 2588 409 
z
M 2541 1666 
Q 2234 1541 1622 1453 
Q 1275 1403 1131 1340 
Q 988 1278 909 1158 
Q 831 1038 831 891 
Q 831 666 1001 516 
Q 1172 366 1500 366 
Q 1825 366 2078 508 
Q 2331 650 2450 897 
Q 2541 1088 2541 1459 
L 2541 1666 
z
" transform="scale(0.015625)"/>
      <path id="ArialMT-6c" d="M 409 0 
L 409 4581 
L 972 4581 
L 972 0 
L 409 0 
z
" transform="scale(0.015625)"/>
      <path id="ArialMT-63" d="M 2588 1216 
L 3141 1144 
Q 3050 572 2676 248 
Q 2303 -75 1759 -75 
Q 1078 -75 664 370 
Q 250 816 250 1647 
Q 250 2184 428 2587 
Q 606 2991 970 3192 
Q 1334 3394 1763 3394 
Q 2303 3394 2647 3120 
Q 2991 2847 3088 2344 
L 2541 2259 
Q 2463 2594 2264 2762 
Q 2066 2931 1784 2931 
Q 1359 2931 1093 2626 
Q 828 2322 828 1663 
Q 828 994 1084 691 
Q 1341 388 1753 388 
Q 2084 388 2306 591 
Q 2528 794 2588 1216 
z
" transform="scale(0.015625)"/>
      <path id="ArialMT-6f" d="M 213 1659 
Q 213 2581 725 3025 
Q 1153 3394 1769 3394 
Q 2453 3394 2887 2945 
Q 3322 2497 3322 1706 
Q 3322 1066 3130 698 
Q 2938 331 2570 128 
Q 2203 -75 1769 -75 
Q 1072 -75 642 372 
Q 213 819 213 1659 
z
M 791 1659 
Q 791 1022 1069 705 
Q 1347 388 1769 388 
Q 2188 388 2466 706 
Q 2744 1025 2744 1678 
Q 2744 2294 2464 2611 
Q 2184 2928 1769 2928 
Q 1347 2928 1069 2612 
Q 791 2297 791 1659 
z
" transform="scale(0.015625)"/>
      <path id="ArialMT-6e" d="M 422 0 
L 422 3319 
L 928 3319 
L 928 2847 
Q 1294 3394 1984 3394 
Q 2284 3394 2536 3286 
Q 2788 3178 2913 3003 
Q 3038 2828 3088 2588 
Q 3119 2431 3119 2041 
L 3119 0 
L 2556 0 
L 2556 2019 
Q 2556 2363 2490 2533 
Q 2425 2703 2258 2804 
Q 2091 2906 1866 2906 
Q 1506 2906 1245 2678 
Q 984 2450 984 1813 
L 984 0 
L 422 0 
z
" transform="scale(0.015625)"/>
      <path id="ArialMT-79" d="M 397 -1278 
L 334 -750 
Q 519 -800 656 -800 
Q 844 -800 956 -737 
Q 1069 -675 1141 -563 
Q 1194 -478 1313 -144 
Q 1328 -97 1363 -6 
L 103 3319 
L 709 3319 
L 1400 1397 
Q 1534 1031 1641 628 
Q 1738 1016 1872 1384 
L 2581 3319 
L 3144 3319 
L 1881 -56 
Q 1678 -603 1566 -809 
Q 1416 -1088 1222 -1217 
Q 1028 -1347 759 -1347 
Q 597 -1347 397 -1278 
z
" transform="scale(0.015625)"/>
      <path id="ArialMT-44" d="M 494 0 
L 494 4581 
L 2072 4581 
Q 2606 4581 2888 4516 
Q 3281 4425 3559 4188 
Q 3922 3881 4101 3404 
Q 4281 2928 4281 2316 
Q 4281 1794 4159 1391 
Q 4038 988 3847 723 
Q 3656 459 3429 307 
Q 3203 156 2883 78 
Q 2563 0 2147 0 
L 494 0 
z
M 1100 541 
L 2078 541 
Q 2531 541 2789 625 
Q 3047 709 3200 863 
Q 3416 1078 3536 1442 
Q 3656 1806 3656 2325 
Q 3656 3044 3420 3430 
Q 3184 3816 2847 3947 
Q 2603 4041 2063 4041 
L 1100 4041 
L 1100 541 
z
" transform="scale(0.015625)"/>
      <path id="ArialMT-72" d="M 416 0 
L 416 3319 
L 922 3319 
L 922 2816 
Q 1116 3169 1280 3281 
Q 1444 3394 1641 3394 
Q 1925 3394 2219 3213 
L 2025 2691 
Q 1819 2813 1613 2813 
Q 1428 2813 1281 2702 
Q 1134 2591 1072 2394 
Q 978 2094 978 1738 
L 978 0 
L 416 0 
z
" transform="scale(0.015625)"/>
     </defs>
     <use xlink:href="#ArialMT-42"/>
     <use xlink:href="#ArialMT-61" x="66.699219"/>
     <use xlink:href="#ArialMT-6c" x="122.314453"/>
     <use xlink:href="#ArialMT-63" x="144.53125"/>
     <use xlink:href="#ArialMT-6f" x="194.53125"/>
     <use xlink:href="#ArialMT-6e" x="250.146484"/>
     <use xlink:href="#ArialMT-79" x="305.761719"/>
     <use xlink:href="#ArialMT-44" x="355.761719"/>
     <use xlink:href="#ArialMT-6f" x="427.978516"/>
     <use xlink:href="#ArialMT-6f" x="483.59375"/>
     <use xlink:href="#ArialMT-72" x="539.208984"/>
    </g>
   </g>
   <g id="text_2">
    <!-- LivingRoom -->
    <g transform="translate(265.369848 139.783307)rotate(-45)scale(0.1 -0.1)">
     <defs>
      <path id="ArialMT-4c" d="M 469 0 
L 469 4581 
L 1075 4581 
L 1075 541 
L 3331 541 
L 3331 0 
L 469 0 
z
" transform="scale(0.015625)"/>
      <path id="ArialMT-69" d="M 425 3934 
L 425 4581 
L 988 4581 
L 988 3934 
L 425 3934 
z
M 425 0 
L 425 3319 
L 988 3319 
L 988 0 
L 425 0 
z
" transform="scale(0.015625)"/>
      <path id="ArialMT-76" d="M 1344 0 
L 81 3319 
L 675 3319 
L 1388 1331 
Q 1503 1009 1600 663 
Q 1675 925 1809 1294 
L 2547 3319 
L 3125 3319 
L 1869 0 
L 1344 0 
z
" transform="scale(0.015625)"/>
      <path id="ArialMT-67" d="M 319 -275 
L 866 -356 
Q 900 -609 1056 -725 
Q 1266 -881 1628 -881 
Q 2019 -881 2231 -725 
Q 2444 -569 2519 -288 
Q 2563 -116 2559 434 
Q 2191 0 1641 0 
Q 956 0 581 494 
Q 206 988 206 1678 
Q 206 2153 378 2554 
Q 550 2956 876 3175 
Q 1203 3394 1644 3394 
Q 2231 3394 2613 2919 
L 2613 3319 
L 3131 3319 
L 3131 450 
Q 3131 -325 2973 -648 
Q 2816 -972 2473 -1159 
Q 2131 -1347 1631 -1347 
Q 1038 -1347 672 -1080 
Q 306 -813 319 -275 
z
M 784 1719 
Q 784 1066 1043 766 
Q 1303 466 1694 466 
Q 2081 466 2343 764 
Q 2606 1063 2606 1700 
Q 2606 2309 2336 2618 
Q 2066 2928 1684 2928 
Q 1309 2928 1046 2623 
Q 784 2319 784 1719 
z
" transform="scale(0.015625)"/>
      <path id="ArialMT-52" d="M 503 0 
L 503 4581 
L 2534 4581 
Q 3147 4581 3465 4457 
Q 3784 4334 3975 4021 
Q 4166 3709 4166 3331 
Q 4166 2844 3850 2509 
Q 3534 2175 2875 2084 
Q 3116 1969 3241 1856 
Q 3506 1613 3744 1247 
L 4541 0 
L 3778 0 
L 3172 953 
Q 2906 1366 2734 1584 
Q 2563 1803 2427 1890 
Q 2291 1978 2150 2013 
Q 2047 2034 1813 2034 
L 1109 2034 
L 1109 0 
L 503 0 
z
M 1109 2559 
L 2413 2559 
Q 2828 2559 3062 2645 
Q 3297 2731 3419 2920 
Q 3541 3109 3541 3331 
Q 3541 3656 3305 3865 
Q 3069 4075 2559 4075 
L 1109 4075 
L 1109 2559 
z
" transform="scale(0.015625)"/>
      <path id="ArialMT-6d" d="M 422 0 
L 422 3319 
L 925 3319 
L 925 2853 
Q 1081 3097 1340 3245 
Q 1600 3394 1931 3394 
Q 2300 3394 2536 3241 
Q 2772 3088 2869 2813 
Q 3263 3394 3894 3394 
Q 4388 3394 4653 3120 
Q 4919 2847 4919 2278 
L 4919 0 
L 4359 0 
L 4359 2091 
Q 4359 2428 4304 2576 
Q 4250 2725 4106 2815 
Q 3963 2906 3769 2906 
Q 3419 2906 3187 2673 
Q 2956 2441 2956 1928 
L 2956 0 
L 2394 0 
L 2394 2156 
Q 2394 2531 2256 2718 
Q 2119 2906 1806 2906 
Q 1569 2906 1367 2781 
Q 1166 2656 1075 2415 
Q 984 2175 984 1722 
L 984 0 
L 422 0 
z
" transform="scale(0.015625)"/>
     </defs>
     <use xlink:href="#ArialMT-4c"/>
     <use xlink:href="#ArialMT-69" x="55.615234"/>
     <use xlink:href="#ArialMT-76" x="77.832031"/>
     <use xlink:href="#ArialMT-69" x="127.832031"/>
     <use xlink:href="#ArialMT-6e" x="150.048828"/>
     <use xlink:href="#ArialMT-67" x="205.664062"/>
     <use xlink:href="#ArialMT-52" x="261.279297"/>
     <use xlink:href="#ArialMT-6f" x="333.496094"/>
     <use xlink:href="#ArialMT-6f" x="389.111328"/>
     <use xlink:href="#ArialMT-6d" x="444.726562"/>
    </g>
   </g>
   <g id="text_3">
    <!-- InternalDoor -->
    <g transform="translate(364.85621 216.780545)rotate(-45)scale(0.1 -0.1)">
     <defs>
      <path id="ArialMT-49" d="M 597 0 
L 597 4581 
L 1203 4581 
L 1203 0 
L 597 0 
z
" transform="scale(0.015625)"/>
      <path id="ArialMT-74" d="M 1650 503 
L 1731 6 
Q 1494 -44 1306 -44 
Q 1000 -44 831 53 
Q 663 150 594 308 
Q 525 466 525 972 
L 525 2881 
L 113 2881 
L 113 3319 
L 525 3319 
L 525 4141 
L 1084 4478 
L 1084 3319 
L 1650 3319 
L 1650 2881 
L 1084 2881 
L 1084 941 
Q 1084 700 1114 631 
Q 1144 563 1211 522 
Q 1278 481 1403 481 
Q 1497 481 1650 503 
z
" transform="scale(0.015625)"/>
      <path id="ArialMT-65" d="M 2694 1069 
L 3275 997 
Q 3138 488 2766 206 
Q 2394 -75 1816 -75 
Q 1088 -75 661 373 
Q 234 822 234 1631 
Q 234 2469 665 2931 
Q 1097 3394 1784 3394 
Q 2450 3394 2872 2941 
Q 3294 2488 3294 1666 
Q 3294 1616 3291 1516 
L 816 1516 
Q 847 969 1125 678 
Q 1403 388 1819 388 
Q 2128 388 2347 550 
Q 2566 713 2694 1069 
z
M 847 1978 
L 2700 1978 
Q 2663 2397 2488 2606 
Q 2219 2931 1791 2931 
Q 1403 2931 1139 2672 
Q 875 2413 847 1978 
z
" transform="scale(0.015625)"/>
     </defs>
     <use xlink:href="#ArialMT-49"/>
     <use xlink:href="#ArialMT-6e" x="27.783203"/>
     <use xlink:href="#ArialMT-74" x="83.398438"/>
     <use xlink:href="#ArialMT-65" x="111.181641"/>
     <use xlink:href="#ArialMT-72" x="166.796875"/>
     <use xlink:href="#ArialMT-6e" x="200.097656"/>
     <use xlink:href="#ArialMT-61" x="255.712891"/>
     <use xlink:href="#ArialMT-6c" x="311.328125"/>
     <use xlink:href="#ArialMT-44" x="333.544922"/>
     <use xlink:href="#ArialMT-6f" x="405.761719"/>
     <use xlink:href="#ArialMT-6f" x="461.376953"/>
     <use xlink:href="#ArialMT-72" x="516.992188"/>
    </g>
   </g>
   <g id="text_4">
    <!-- LaundryRoom -->
    <g transform="translate(358.867092 194.132714)rotate(-45)scale(0.1 -0.1)">
     <defs>
      <path id="ArialMT-75" d="M 2597 0 
L 2597 488 
Q 2209 -75 1544 -75 
Q 1250 -75 995 37 
Q 741 150 617 320 
Q 494 491 444 738 
Q 409 903 409 1263 
L 409 3319 
L 972 3319 
L 972 1478 
Q 972 1038 1006 884 
Q 1059 663 1231 536 
Q 1403 409 1656 409 
Q 1909 409 2131 539 
Q 2353 669 2445 892 
Q 2538 1116 2538 1541 
L 2538 3319 
L 3100 3319 
L 3100 0 
L 2597 0 
z
" transform="scale(0.015625)"/>
      <path id="ArialMT-64" d="M 2575 0 
L 2575 419 
Q 2259 -75 1647 -75 
Q 1250 -75 917 144 
Q 584 363 401 755 
Q 219 1147 219 1656 
Q 219 2153 384 2558 
Q 550 2963 881 3178 
Q 1213 3394 1622 3394 
Q 1922 3394 2156 3267 
Q 2391 3141 2538 2938 
L 2538 4581 
L 3097 4581 
L 3097 0 
L 2575 0 
z
M 797 1656 
Q 797 1019 1065 703 
Q 1334 388 1700 388 
Q 2069 388 2326 689 
Q 2584 991 2584 1609 
Q 2584 2291 2321 2609 
Q 2059 2928 1675 2928 
Q 1300 2928 1048 2622 
Q 797 2316 797 1656 
z
" transform="scale(0.015625)"/>
     </defs>
     <use xlink:href="#ArialMT-4c"/>
     <use xlink:href="#ArialMT-61" x="55.615234"/>
     <use xlink:href="#ArialMT-75" x="111.230469"/>
     <use xlink:href="#ArialMT-6e" x="166.845703"/>
     <use xlink:href="#ArialMT-64" x="222.460938"/>
     <use xlink:href="#ArialMT-72" x="278.076172"/>
     <use xlink:href="#ArialMT-79" x="311.376953"/>
     <use xlink:href="#ArialMT-52" x="361.376953"/>
     <use xlink:href="#ArialMT-6f" x="433.59375"/>
     <use xlink:href="#ArialMT-6f" x="489.208984"/>
     <use xlink:href="#ArialMT-6d" x="544.824219"/>
    </g>
   </g>
   <g id="text_5">
    <!-- BalconyDoor -->
    <g transform="translate(184.915757 215.089961)rotate(-45)scale(0.1 -0.1)">
     <use xlink:href="#ArialMT-42"/>
     <use xlink:href="#ArialMT-61" x="66.699219"/>
     <use xlink:href="#ArialMT-6c" x="122.314453"/>
     <use xlink:href="#ArialMT-63" x="144.53125"/>
     <use xlink:href="#ArialMT-6f" x="194.53125"/>
     <use xlink:href="#ArialMT-6e" x="250.146484"/>
     <use xlink:href="#ArialMT-79" x="305.761719"/>
     <use xlink:href="#ArialMT-44" x="355.761719"/>
     <use xlink:href="#ArialMT-6f" x="427.978516"/>
     <use xlink:href="#ArialMT-6f" x="483.59375"/>
     <use xlink:href="#ArialMT-72" x="539.208984"/>
    </g>
   </g>
   <g id="text_6">
    <!-- HomeOffice -->
    <g transform="translate(198.426819 173.241255)rotate(-45)scale(0.1 -0.1)">
     <defs>
      <path id="ArialMT-48" d="M 513 0 
L 513 4581 
L 1119 4581 
L 1119 2700 
L 3500 2700 
L 3500 4581 
L 4106 4581 
L 4106 0 
L 3500 0 
L 3500 2159 
L 1119 2159 
L 1119 0 
L 513 0 
z
" transform="scale(0.015625)"/>
      <path id="ArialMT-4f" d="M 309 2231 
Q 309 3372 921 4017 
Q 1534 4663 2503 4663 
Q 3138 4663 3647 4359 
Q 4156 4056 4423 3514 
Q 4691 2972 4691 2284 
Q 4691 1588 4409 1038 
Q 4128 488 3612 205 
Q 3097 -78 2500 -78 
Q 1853 -78 1343 234 
Q 834 547 571 1087 
Q 309 1628 309 2231 
z
M 934 2222 
Q 934 1394 1379 917 
Q 1825 441 2497 441 
Q 3181 441 3623 922 
Q 4066 1403 4066 2288 
Q 4066 2847 3877 3264 
Q 3688 3681 3323 3911 
Q 2959 4141 2506 4141 
Q 1863 4141 1398 3698 
Q 934 3256 934 2222 
z
" transform="scale(0.015625)"/>
      <path id="ArialMT-66" d="M 556 0 
L 556 2881 
L 59 2881 
L 59 3319 
L 556 3319 
L 556 3672 
Q 556 4006 616 4169 
Q 697 4388 901 4523 
Q 1106 4659 1475 4659 
Q 1713 4659 2000 4603 
L 1916 4113 
Q 1741 4144 1584 4144 
Q 1328 4144 1222 4034 
Q 1116 3925 1116 3625 
L 1116 3319 
L 1763 3319 
L 1763 2881 
L 1116 2881 
L 1116 0 
L 556 0 
z
" transform="scale(0.015625)"/>
     </defs>
     <use xlink:href="#ArialMT-48"/>
     <use xlink:href="#ArialMT-6f" x="72.216797"/>
     <use xlink:href="#ArialMT-6d" x="127.832031"/>
     <use xlink:href="#ArialMT-65" x="211.132812"/>
     <use xlink:href="#ArialMT-4f" x="266.748047"/>
     <use xlink:href="#ArialMT-66" x="344.53125"/>
     <use xlink:href="#ArialMT-66" x="370.564453"/>
     <use xlink:href="#ArialMT-69" x="398.347656"/>
     <use xlink:href="#ArialMT-63" x="420.564453"/>
     <use xlink:href="#ArialMT-65" x="470.564453"/>
    </g>
   </g>
   <g id="text_7">
    <!-- AccessBalcony -->
    <g transform="translate(46.715207 215.189356)rotate(-45)scale(0.1 -0.1)">
     <defs>
      <path id="ArialMT-41" d="M -9 0 
L 1750 4581 
L 2403 4581 
L 4278 0 
L 3588 0 
L 3053 1388 
L 1138 1388 
L 634 0 
L -9 0 
z
M 1313 1881 
L 2866 1881 
L 2388 3150 
Q 2169 3728 2063 4100 
Q 1975 3659 1816 3225 
L 1313 1881 
z
" transform="scale(0.015625)"/>
      <path id="ArialMT-73" d="M 197 991 
L 753 1078 
Q 800 744 1014 566 
Q 1228 388 1613 388 
Q 2000 388 2187 545 
Q 2375 703 2375 916 
Q 2375 1106 2209 1216 
Q 2094 1291 1634 1406 
Q 1016 1563 777 1677 
Q 538 1791 414 1992 
Q 291 2194 291 2438 
Q 291 2659 392 2848 
Q 494 3038 669 3163 
Q 800 3259 1026 3326 
Q 1253 3394 1513 3394 
Q 1903 3394 2198 3281 
Q 2494 3169 2634 2976 
Q 2775 2784 2828 2463 
L 2278 2388 
Q 2241 2644 2061 2787 
Q 1881 2931 1553 2931 
Q 1166 2931 1000 2803 
Q 834 2675 834 2503 
Q 834 2394 903 2306 
Q 972 2216 1119 2156 
Q 1203 2125 1616 2013 
Q 2213 1853 2448 1751 
Q 2684 1650 2818 1456 
Q 2953 1263 2953 975 
Q 2953 694 2789 445 
Q 2625 197 2315 61 
Q 2006 -75 1616 -75 
Q 969 -75 630 194 
Q 291 463 197 991 
z
" transform="scale(0.015625)"/>
     </defs>
     <use xlink:href="#ArialMT-41"/>
     <use xlink:href="#ArialMT-63" x="66.699219"/>
     <use xlink:href="#ArialMT-63" x="116.699219"/>
     <use xlink:href="#ArialMT-65" x="166.699219"/>
     <use xlink:href="#ArialMT-73" x="222.314453"/>
     <use xlink:href="#ArialMT-73" x="272.314453"/>
     <use xlink:href="#ArialMT-42" x="322.314453"/>
     <use xlink:href="#ArialMT-61" x="389.013672"/>
     <use xlink:href="#ArialMT-6c" x="444.628906"/>
     <use xlink:href="#ArialMT-63" x="466.845703"/>
     <use xlink:href="#ArialMT-6f" x="516.845703"/>
     <use xlink:href="#ArialMT-6e" x="572.460938"/>
     <use xlink:href="#ArialMT-79" x="628.076172"/>
    </g>
   </g>
   <g id="text_8">
    <!-- InternalDoor -->
    <g transform="translate(337.770404 146.675649)rotate(-45)scale(0.1 -0.1)">
     <use xlink:href="#ArialMT-49"/>
     <use xlink:href="#ArialMT-6e" x="27.783203"/>
     <use xlink:href="#ArialMT-74" x="83.398438"/>
     <use xlink:href="#ArialMT-65" x="111.181641"/>
     <use xlink:href="#ArialMT-72" x="166.796875"/>
     <use xlink:href="#ArialMT-6e" x="200.097656"/>
     <use xlink:href="#ArialMT-61" x="255.712891"/>
     <use xlink:href="#ArialMT-6c" x="311.328125"/>
     <use xlink:href="#ArialMT-44" x="333.544922"/>
     <use xlink:href="#ArialMT-6f" x="405.761719"/>
     <use xlink:href="#ArialMT-6f" x="461.376953"/>
     <use xlink:href="#ArialMT-72" x="516.992188"/>
    </g>
   </g>
   <g id="text_9">
    <!-- MasterBedroom -->
    <g transform="translate(370.279635 113.351687)rotate(-45)scale(0.1 -0.1)">
     <defs>
      <path id="ArialMT-4d" d="M 475 0 
L 475 4581 
L 1388 4581 
L 2472 1338 
Q 2622 884 2691 659 
Q 2769 909 2934 1394 
L 4031 4581 
L 4847 4581 
L 4847 0 
L 4263 0 
L 4263 3834 
L 2931 0 
L 2384 0 
L 1059 3900 
L 1059 0 
L 475 0 
z
" transform="scale(0.015625)"/>
     </defs>
     <use xlink:href="#ArialMT-4d"/>
     <use xlink:href="#ArialMT-61" x="83.300781"/>
     <use xlink:href="#ArialMT-73" x="138.916016"/>
     <use xlink:href="#ArialMT-74" x="188.916016"/>
     <use xlink:href="#ArialMT-65" x="216.699219"/>
     <use xlink:href="#ArialMT-72" x="272.314453"/>
     <use xlink:href="#ArialMT-42" x="305.615234"/>
     <use xlink:href="#ArialMT-65" x="372.314453"/>
     <use xlink:href="#ArialMT-64" x="427.929688"/>
     <use xlink:href="#ArialMT-72" x="483.544922"/>
     <use xlink:href="#ArialMT-6f" x="516.845703"/>
     <use xlink:href="#ArialMT-6f" x="572.460938"/>
     <use xlink:href="#ArialMT-6d" x="628.076172"/>
    </g>
   </g>
   <g id="text_10">
    <!-- BalconyDoor -->
    <g transform="translate(213.084351 318.726263)rotate(-45)scale(0.1 -0.1)">
     <use xlink:href="#ArialMT-42"/>
     <use xlink:href="#ArialMT-61" x="66.699219"/>
     <use xlink:href="#ArialMT-6c" x="122.314453"/>
     <use xlink:href="#ArialMT-63" x="144.53125"/>
     <use xlink:href="#ArialMT-6f" x="194.53125"/>
     <use xlink:href="#ArialMT-6e" x="250.146484"/>
     <use xlink:href="#ArialMT-79" x="305.761719"/>
     <use xlink:href="#ArialMT-44" x="355.761719"/>
     <use xlink:href="#ArialMT-6f" x="427.978516"/>
     <use xlink:href="#ArialMT-6f" x="483.59375"/>
     <use xlink:href="#ArialMT-72" x="539.208984"/>
    </g>
   </g>
   <g id="text_11">
    <!-- Bedroom -->
    <g transform="translate(258.076256 301.342126)rotate(-45)scale(0.1 -0.1)">
     <use xlink:href="#ArialMT-42"/>
     <use xlink:href="#ArialMT-65" x="66.699219"/>
     <use xlink:href="#ArialMT-64" x="122.314453"/>
     <use xlink:href="#ArialMT-72" x="177.929688"/>
     <use xlink:href="#ArialMT-6f" x="211.230469"/>
     <use xlink:href="#ArialMT-6f" x="266.845703"/>
     <use xlink:href="#ArialMT-6d" x="322.460938"/>
    </g>
   </g>
   <g id="text_12">
    <!-- BalconyDoor -->
    <g transform="translate(369.313495 59.194567)rotate(-45)scale(0.1 -0.1)">
     <use xlink:href="#ArialMT-42"/>
     <use xlink:href="#ArialMT-61" x="66.699219"/>
     <use xlink:href="#ArialMT-6c" x="122.314453"/>
     <use xlink:href="#ArialMT-63" x="144.53125"/>
     <use xlink:href="#ArialMT-6f" x="194.53125"/>
     <use xlink:href="#ArialMT-6e" x="250.146484"/>
     <use xlink:href="#ArialMT-79" x="305.761719"/>
     <use xlink:href="#ArialMT-44" x="355.761719"/>
     <use xlink:href="#ArialMT-6f" x="427.978516"/>
     <use xlink:href="#ArialMT-6f" x="483.59375"/>
     <use xlink:href="#ArialMT-72" x="539.208984"/>
    </g>
   </g>
   <g id="text_13">
    <!-- InternalDoor -->
    <g transform="translate(380.906953 235.11362)rotate(-45)scale(0.1 -0.1)">
     <use xlink:href="#ArialMT-49"/>
     <use xlink:href="#ArialMT-6e" x="27.783203"/>
     <use xlink:href="#ArialMT-74" x="83.398438"/>
     <use xlink:href="#ArialMT-65" x="111.181641"/>
     <use xlink:href="#ArialMT-72" x="166.796875"/>
     <use xlink:href="#ArialMT-6e" x="200.097656"/>
     <use xlink:href="#ArialMT-61" x="255.712891"/>
     <use xlink:href="#ArialMT-6c" x="311.328125"/>
     <use xlink:href="#ArialMT-44" x="333.544922"/>
     <use xlink:href="#ArialMT-6f" x="405.761719"/>
     <use xlink:href="#ArialMT-6f" x="461.376953"/>
     <use xlink:href="#ArialMT-72" x="516.992188"/>
    </g>
   </g>
   <g id="text_14">
    <!-- Bathroom -->
    <g transform="translate(404.599045 186.338597)rotate(-45)scale(0.1 -0.1)">
     <defs>
      <path id="ArialMT-68" d="M 422 0 
L 422 4581 
L 984 4581 
L 984 2938 
Q 1378 3394 1978 3394 
Q 2347 3394 2619 3248 
Q 2891 3103 3008 2847 
Q 3125 2591 3125 2103 
L 3125 0 
L 2563 0 
L 2563 2103 
Q 2563 2525 2380 2717 
Q 2197 2909 1863 2909 
Q 1613 2909 1392 2779 
Q 1172 2650 1078 2428 
Q 984 2206 984 1816 
L 984 0 
L 422 0 
z
" transform="scale(0.015625)"/>
     </defs>
     <use xlink:href="#ArialMT-42"/>
     <use xlink:href="#ArialMT-61" x="66.699219"/>
     <use xlink:href="#ArialMT-74" x="122.314453"/>
     <use xlink:href="#ArialMT-68" x="150.097656"/>
     <use xlink:href="#ArialMT-72" x="205.712891"/>
     <use xlink:href="#ArialMT-6f" x="239.013672"/>
     <use xlink:href="#ArialMT-6f" x="294.628906"/>
     <use xlink:href="#ArialMT-6d" x="350.244141"/>
    </g>
   </g>
   <g id="text_15">
    <!-- ElevatorDoor -->
    <g transform="translate(40.865789 137.603713)rotate(-45)scale(0.1 -0.1)">
     <defs>
      <path id="ArialMT-45" d="M 506 0 
L 506 4581 
L 3819 4581 
L 3819 4041 
L 1113 4041 
L 1113 2638 
L 3647 2638 
L 3647 2100 
L 1113 2100 
L 1113 541 
L 3925 541 
L 3925 0 
L 506 0 
z
" transform="scale(0.015625)"/>
     </defs>
     <use xlink:href="#ArialMT-45"/>
     <use xlink:href="#ArialMT-6c" x="66.699219"/>
     <use xlink:href="#ArialMT-65" x="88.916016"/>
     <use xlink:href="#ArialMT-76" x="144.53125"/>
     <use xlink:href="#ArialMT-61" x="194.53125"/>
     <use xlink:href="#ArialMT-74" x="250.146484"/>
     <use xlink:href="#ArialMT-6f" x="277.929688"/>
     <use xlink:href="#ArialMT-72" x="333.544922"/>
     <use xlink:href="#ArialMT-44" x="366.845703"/>
     <use xlink:href="#ArialMT-6f" x="439.0625"/>
     <use xlink:href="#ArialMT-6f" x="494.677734"/>
     <use xlink:href="#ArialMT-72" x="550.292969"/>
    </g>
   </g>
   <g id="text_16">
    <!-- Elevator -->
    <g transform="translate(53.253438 102.775238)rotate(-45)scale(0.1 -0.1)">
     <use xlink:href="#ArialMT-45"/>
     <use xlink:href="#ArialMT-6c" x="66.699219"/>
     <use xlink:href="#ArialMT-65" x="88.916016"/>
     <use xlink:href="#ArialMT-76" x="144.53125"/>
     <use xlink:href="#ArialMT-61" x="194.53125"/>
     <use xlink:href="#ArialMT-74" x="250.146484"/>
     <use xlink:href="#ArialMT-6f" x="277.929688"/>
     <use xlink:href="#ArialMT-72" x="333.544922"/>
    </g>
   </g>
   <g id="text_17">
    <!-- InternalDoor -->
    <g transform="translate(366.878114 244.839523)rotate(-45)scale(0.1 -0.1)">
     <use xlink:href="#ArialMT-49"/>
     <use xlink:href="#ArialMT-6e" x="27.783203"/>
     <use xlink:href="#ArialMT-74" x="83.398438"/>
     <use xlink:href="#ArialMT-65" x="111.181641"/>
     <use xlink:href="#ArialMT-72" x="166.796875"/>
     <use xlink:href="#ArialMT-6e" x="200.097656"/>
     <use xlink:href="#ArialMT-61" x="255.712891"/>
     <use xlink:href="#ArialMT-6c" x="311.328125"/>
     <use xlink:href="#ArialMT-44" x="333.544922"/>
     <use xlink:href="#ArialMT-6f" x="405.761719"/>
     <use xlink:href="#ArialMT-6f" x="461.376953"/>
     <use xlink:href="#ArialMT-72" x="516.992188"/>
    </g>
   </g>
   <g id="text_18">
    <!-- Bedroom -->
    <g transform="translate(394.215861 296.147292)rotate(-45)scale(0.1 -0.1)">
     <use xlink:href="#ArialMT-42"/>
     <use xlink:href="#ArialMT-65" x="66.699219"/>
     <use xlink:href="#ArialMT-64" x="122.314453"/>
     <use xlink:href="#ArialMT-72" x="177.929688"/>
     <use xlink:href="#ArialMT-6f" x="211.230469"/>
     <use xlink:href="#ArialMT-6f" x="266.845703"/>
     <use xlink:href="#ArialMT-6d" x="322.460938"/>
    </g>
   </g>
   <g id="text_19">
    <!-- InternalDoor -->
    <g transform="translate(275.063648 244.839523)rotate(-45)scale(0.1 -0.1)">
     <use xlink:href="#ArialMT-49"/>
     <use xlink:href="#ArialMT-6e" x="27.783203"/>
     <use xlink:href="#ArialMT-74" x="83.398438"/>
     <use xlink:href="#ArialMT-65" x="111.181641"/>
     <use xlink:href="#ArialMT-72" x="166.796875"/>
     <use xlink:href="#ArialMT-6e" x="200.097656"/>
     <use xlink:href="#ArialMT-61" x="255.712891"/>
     <use xlink:href="#ArialMT-6c" x="311.328125"/>
     <use xlink:href="#ArialMT-44" x="333.544922"/>
     <use xlink:href="#ArialMT-6f" x="405.761719"/>
     <use xlink:href="#ArialMT-6f" x="461.376953"/>
     <use xlink:href="#ArialMT-72" x="516.992188"/>
    </g>
   </g>
   <g id="text_20">
    <!-- InternalDoor -->
    <g transform="translate(380.887436 146.794356)rotate(-45)scale(0.1 -0.1)">
     <use xlink:href="#ArialMT-49"/>
     <use xlink:href="#ArialMT-6e" x="27.783203"/>
     <use xlink:href="#ArialMT-74" x="83.398438"/>
     <use xlink:href="#ArialMT-65" x="111.181641"/>
     <use xlink:href="#ArialMT-72" x="166.796875"/>
     <use xlink:href="#ArialMT-6e" x="200.097656"/>
     <use xlink:href="#ArialMT-61" x="255.712891"/>
     <use xlink:href="#ArialMT-6c" x="311.328125"/>
     <use xlink:href="#ArialMT-44" x="333.544922"/>
     <use xlink:href="#ArialMT-6f" x="405.761719"/>
     <use xlink:href="#ArialMT-6f" x="461.376953"/>
     <use xlink:href="#ArialMT-72" x="516.992188"/>
    </g>
   </g>
   <g id="text_21">
    <!-- InternalDoor -->
    <g transform="translate(218.988091 137.419946)rotate(-45)scale(0.1 -0.1)">
     <use xlink:href="#ArialMT-49"/>
     <use xlink:href="#ArialMT-6e" x="27.783203"/>
     <use xlink:href="#ArialMT-74" x="83.398438"/>
     <use xlink:href="#ArialMT-65" x="111.181641"/>
     <use xlink:href="#ArialMT-72" x="166.796875"/>
     <use xlink:href="#ArialMT-6e" x="200.097656"/>
     <use xlink:href="#ArialMT-61" x="255.712891"/>
     <use xlink:href="#ArialMT-6c" x="311.328125"/>
     <use xlink:href="#ArialMT-44" x="333.544922"/>
     <use xlink:href="#ArialMT-6f" x="405.761719"/>
     <use xlink:href="#ArialMT-6f" x="461.376953"/>
     <use xlink:href="#ArialMT-72" x="516.992188"/>
    </g>
   </g>
   <g id="text_22">
    <!-- UnitDoor -->
    <g transform="translate(219.573704 226.12895)rotate(-45)scale(0.1 -0.1)">
     <defs>
      <path id="ArialMT-55" d="M 3500 4581 
L 4106 4581 
L 4106 1934 
Q 4106 1244 3950 837 
Q 3794 431 3386 176 
Q 2978 -78 2316 -78 
Q 1672 -78 1262 144 
Q 853 366 678 786 
Q 503 1206 503 1934 
L 503 4581 
L 1109 4581 
L 1109 1938 
Q 1109 1341 1220 1058 
Q 1331 775 1601 622 
Q 1872 469 2263 469 
Q 2931 469 3215 772 
Q 3500 1075 3500 1938 
L 3500 4581 
z
" transform="scale(0.015625)"/>
     </defs>
     <use xlink:href="#ArialMT-55"/>
     <use xlink:href="#ArialMT-6e" x="72.216797"/>
     <use xlink:href="#ArialMT-69" x="127.832031"/>
     <use xlink:href="#ArialMT-74" x="150.048828"/>
     <use xlink:href="#ArialMT-44" x="177.832031"/>
     <use xlink:href="#ArialMT-6f" x="250.048828"/>
     <use xlink:href="#ArialMT-6f" x="305.664062"/>
     <use xlink:href="#ArialMT-72" x="361.279297"/>
    </g>
   </g>
   <g id="text_23">
    <!-- InternalDoor -->
    <g transform="translate(364.936878 216.696136)rotate(-45)scale(0.1 -0.1)">
     <use xlink:href="#ArialMT-49"/>
     <use xlink:href="#ArialMT-6e" x="27.783203"/>
     <use xlink:href="#ArialMT-74" x="83.398438"/>
     <use xlink:href="#ArialMT-65" x="111.181641"/>
     <use xlink:href="#ArialMT-72" x="166.796875"/>
     <use xlink:href="#ArialMT-6e" x="200.097656"/>
     <use xlink:href="#ArialMT-61" x="255.712891"/>
     <use xlink:href="#ArialMT-6c" x="311.328125"/>
     <use xlink:href="#ArialMT-44" x="333.544922"/>
     <use xlink:href="#ArialMT-6f" x="405.761719"/>
     <use xlink:href="#ArialMT-6f" x="461.376953"/>
     <use xlink:href="#ArialMT-72" x="516.992188"/>
    </g>
   </g>
   <g id="text_24">
    <!-- InternalDoor -->
    <g transform="translate(300.147484 244.855901)rotate(-45)scale(0.1 -0.1)">
     <use xlink:href="#ArialMT-49"/>
     <use xlink:href="#ArialMT-6e" x="27.783203"/>
     <use xlink:href="#ArialMT-74" x="83.398438"/>
     <use xlink:href="#ArialMT-65" x="111.181641"/>
     <use xlink:href="#ArialMT-72" x="166.796875"/>
     <use xlink:href="#ArialMT-6e" x="200.097656"/>
     <use xlink:href="#ArialMT-61" x="255.712891"/>
     <use xlink:href="#ArialMT-6c" x="311.328125"/>
     <use xlink:href="#ArialMT-44" x="333.544922"/>
     <use xlink:href="#ArialMT-6f" x="405.761719"/>
     <use xlink:href="#ArialMT-6f" x="461.376953"/>
     <use xlink:href="#ArialMT-72" x="516.992188"/>
    </g>
   </g>
   <g id="text_25">
    <!-- Bedroom -->
    <g transform="translate(327.494339 296.147292)rotate(-45)scale(0.1 -0.1)">
     <use xlink:href="#ArialMT-42"/>
     <use xlink:href="#ArialMT-65" x="66.699219"/>
     <use xlink:href="#ArialMT-64" x="122.314453"/>
     <use xlink:href="#ArialMT-72" x="177.929688"/>
     <use xlink:href="#ArialMT-6f" x="211.230469"/>
     <use xlink:href="#ArialMT-6f" x="266.845703"/>
     <use xlink:href="#ArialMT-6d" x="322.460938"/>
    </g>
   </g>
   <g id="text_26">
    <!-- InternalDoor -->
    <g transform="translate(243.964987 244.855901)rotate(-45)scale(0.1 -0.1)">
     <use xlink:href="#ArialMT-49"/>
     <use xlink:href="#ArialMT-6e" x="27.783203"/>
     <use xlink:href="#ArialMT-74" x="83.398438"/>
     <use xlink:href="#ArialMT-65" x="111.181641"/>
     <use xlink:href="#ArialMT-72" x="166.796875"/>
     <use xlink:href="#ArialMT-6e" x="200.097656"/>
     <use xlink:href="#ArialMT-61" x="255.712891"/>
     <use xlink:href="#ArialMT-6c" x="311.328125"/>
     <use xlink:href="#ArialMT-44" x="333.544922"/>
     <use xlink:href="#ArialMT-6f" x="405.761719"/>
     <use xlink:href="#ArialMT-6f" x="461.376953"/>
     <use xlink:href="#ArialMT-72" x="516.992188"/>
    </g>
   </g>
   <g id="text_27">
    <!-- StorageRoom -->
    <g transform="translate(235.708785 255.853908)rotate(-45)scale(0.1 -0.1)">
     <defs>
      <path id="ArialMT-53" d="M 288 1472 
L 859 1522 
Q 900 1178 1048 958 
Q 1197 738 1509 602 
Q 1822 466 2213 466 
Q 2559 466 2825 569 
Q 3091 672 3220 851 
Q 3350 1031 3350 1244 
Q 3350 1459 3225 1620 
Q 3100 1781 2813 1891 
Q 2628 1963 1997 2114 
Q 1366 2266 1113 2400 
Q 784 2572 623 2826 
Q 463 3081 463 3397 
Q 463 3744 659 4045 
Q 856 4347 1234 4503 
Q 1613 4659 2075 4659 
Q 2584 4659 2973 4495 
Q 3363 4331 3572 4012 
Q 3781 3694 3797 3291 
L 3216 3247 
Q 3169 3681 2898 3903 
Q 2628 4125 2100 4125 
Q 1550 4125 1298 3923 
Q 1047 3722 1047 3438 
Q 1047 3191 1225 3031 
Q 1400 2872 2139 2705 
Q 2878 2538 3153 2413 
Q 3553 2228 3743 1945 
Q 3934 1663 3934 1294 
Q 3934 928 3725 604 
Q 3516 281 3123 101 
Q 2731 -78 2241 -78 
Q 1619 -78 1198 103 
Q 778 284 539 648 
Q 300 1013 288 1472 
z
" transform="scale(0.015625)"/>
     </defs>
     <use xlink:href="#ArialMT-53"/>
     <use xlink:href="#ArialMT-74" x="66.699219"/>
     <use xlink:href="#ArialMT-6f" x="94.482422"/>
     <use xlink:href="#ArialMT-72" x="150.097656"/>
     <use xlink:href="#ArialMT-61" x="183.398438"/>
     <use xlink:href="#ArialMT-67" x="239.013672"/>
     <use xlink:href="#ArialMT-65" x="294.628906"/>
     <use xlink:href="#ArialMT-52" x="350.244141"/>
     <use xlink:href="#ArialMT-6f" x="422.460938"/>
     <use xlink:href="#ArialMT-6f" x="478.076172"/>
     <use xlink:href="#ArialMT-6d" x="533.691406"/>
    </g>
   </g>
   <g id="text_28">
    <!-- Shaft -->
    <g transform="translate(248.408023 196.907875)rotate(-45)scale(0.1 -0.1)">
     <use xlink:href="#ArialMT-53"/>
     <use xlink:href="#ArialMT-68" x="66.699219"/>
     <use xlink:href="#ArialMT-61" x="122.314453"/>
     <use xlink:href="#ArialMT-66" x="177.929688"/>
     <use xlink:href="#ArialMT-74" x="205.712891"/>
    </g>
   </g>
   <g id="text_29">
    <!-- Shaft -->
    <g transform="translate(349.453768 196.907875)rotate(-45)scale(0.1 -0.1)">
     <use xlink:href="#ArialMT-53"/>
     <use xlink:href="#ArialMT-68" x="66.699219"/>
     <use xlink:href="#ArialMT-61" x="122.314453"/>
     <use xlink:href="#ArialMT-66" x="177.929688"/>
     <use xlink:href="#ArialMT-74" x="205.712891"/>
    </g>
   </g>
   <g id="text_30">
    <!-- Shaft -->
    <g transform="translate(430.186146 169.095823)rotate(-45)scale(0.1 -0.1)">
     <use xlink:href="#ArialMT-53"/>
     <use xlink:href="#ArialMT-68" x="66.699219"/>
     <use xlink:href="#ArialMT-61" x="122.314453"/>
     <use xlink:href="#ArialMT-66" x="177.929688"/>
     <use xlink:href="#ArialMT-74" x="205.712891"/>
    </g>
   </g>
  </g>
 </g>
 <defs>
  <clipPath id="p1cf8435bf9">
   <rect x="10.8" y="20.766647" width="434.351105" height="314.033353"/>
  </clipPath>
 </defs>
</svg>
